<?xml version="1.0" encoding="UTF-8" standalone="no"?>
<svg
   enable-background="new 0 0 671.5 14.67"
   version="1.1"
   viewBox="0 0 300 15"
   xml:space="preserve"
   id="svg4"
   sodipodi:docname="line.svg"
   width="300"
   height="15"
   inkscape:version="1.1.2 (0a00cf5339, 2022-02-04)"
   xmlns:inkscape="http://www.inkscape.org/namespaces/inkscape"
   xmlns:sodipodi="http://sodipodi.sourceforge.net/DTD/sodipodi-0.dtd"
   xmlns="http://www.w3.org/2000/svg"
   xmlns:svg="http://www.w3.org/2000/svg"><defs
   id="defs8" /><sodipodi:namedview
   id="namedview6"
   pagecolor="#ffffff"
   bordercolor="#666666"
   borderopacity="1.0"
   inkscape:pageshadow="2"
   inkscape:pageopacity="0.0"
   inkscape:pagecheckerboard="0"
   showgrid="false"
   fit-margin-top="0"
   fit-margin-left="0"
   fit-margin-right="0"
   fit-margin-bottom="0"
   inkscape:zoom="1.9091586"
   inkscape:cx="334.44052"
   inkscape:cy="-117.06728"
   inkscape:window-width="2488"
   inkscape:window-height="1371"
   inkscape:window-x="2632"
   inkscape:window-y="32"
   inkscape:window-maximized="1"
   inkscape:current-layer="svg4" />

<polygon
   class="st1"
   points="18.9,14.65 15.76,14.65 0.08,0 3.22,0 "
   id="polygon4"
   style="fill:#b6dde2"
   transform="matrix(0.99068754,0,0,1.0238908,-0.079255,0)" /><polygon
   class="st1"
   points="26.57,14.65 23.43,14.65 7.76,0 10.9,0 "
   id="polygon6"
   style="fill:#b6dde2"
   transform="matrix(0.99068754,0,0,1.0238908,-0.079255,0)" /><polygon
   class="st1"
   points="34.25,14.65 31.11,14.65 15.43,0 18.57,0 "
   id="polygon8"
   style="fill:#b6dde2"
   transform="matrix(0.99068754,0,0,1.0238908,-0.079255,0)" /><polygon
   class="st1"
   points="41.92,14.65 38.79,14.65 23.11,0 26.25,0 "
   id="polygon10"
   style="fill:#b6dde2"
   transform="matrix(0.99068754,0,0,1.0238908,-0.079255,0)" /><polygon
   class="st1"
   points="49.6,14.65 46.46,14.65 30.78,0 33.92,0 "
   id="polygon12"
   style="fill:#b6dde2"
   transform="matrix(0.99068754,0,0,1.0238908,-0.079255,0)" /><polygon
   class="st1"
   points="57.27,14.65 54.14,14.65 38.46,0 41.6,0 "
   id="polygon14"
   style="fill:#b6dde2"
   transform="matrix(0.99068754,0,0,1.0238908,-0.079255,0)" /><polygon
   class="st1"
   points="64.95,14.65 61.81,14.65 46.13,0 49.27,0 "
   id="polygon16"
   style="fill:#b6dde2"
   transform="matrix(0.99068754,0,0,1.0238908,-0.079255,0)" /><polygon
   class="st1"
   points="72.63,14.65 69.49,14.65 53.81,0 56.95,0 "
   id="polygon18"
   style="fill:#b6dde2"
   transform="matrix(0.99068754,0,0,1.0238908,-0.079255,0)" /><polygon
   class="st1"
   points="80.3,14.65 77.16,14.65 61.49,0 64.62,0 "
   id="polygon20"
   style="fill:#b6dde2"
   transform="matrix(0.99068754,0,0,1.0238908,-0.079255,0)" /><polygon
   class="st1"
   points="87.98,14.65 84.84,14.65 69.16,0 72.3,0 "
   id="polygon22"
   style="fill:#b6dde2"
   transform="matrix(0.99068754,0,0,1.0238908,-0.079255,0)" /><polygon
   class="st1"
   points="95.65,14.65 92.51,14.65 76.84,0 79.98,0 "
   id="polygon24"
   style="fill:#b6dde2"
   transform="matrix(0.99068754,0,0,1.0238908,-0.079255,0)" /><polygon
   class="st1"
   points="103.33,14.65 100.19,14.65 84.51,0 87.65,0 "
   id="polygon26"
   style="fill:#b6dde2"
   transform="matrix(0.99068754,0,0,1.0238908,-0.079255,0)" /><polygon
   class="st1"
   points="111,14.65 107.87,14.65 92.19,0 95.33,0 "
   id="polygon28"
   style="fill:#b6dde2"
   transform="matrix(0.99068754,0,0,1.0238908,-0.079255,0)" /><polygon
   class="st1"
   points="118.68,14.65 115.54,14.65 99.86,0 103,0 "
   id="polygon30"
   style="fill:#b6dde2"
   transform="matrix(0.99068754,0,0,1.0238908,-0.079255,0)" /><polygon
   class="st1"
   points="126.36,14.65 123.22,14.65 107.54,0 110.68,0 "
   id="polygon32"
   style="fill:#b6dde2"
   transform="matrix(0.99068754,0,0,1.0238908,-0.079255,0)" /><polygon
   class="st1"
   points="134.03,14.65 130.89,14.65 115.22,0 118.35,0 "
   id="polygon34"
   style="fill:#b6dde2"
   transform="matrix(0.99068754,0,0,1.0238908,-0.079255,0)" /><polygon
   class="st1"
   points="141.71,14.65 138.57,14.65 122.89,0 126.03,0 "
   id="polygon36"
   style="fill:#b6dde2"
   transform="matrix(0.99068754,0,0,1.0238908,-0.079255,0)" /><polygon
   class="st1"
   points="149.38,14.65 146.24,14.65 130.57,0 133.71,0 "
   id="polygon38"
   style="fill:#b6dde2"
   transform="matrix(0.99068754,0,0,1.0238908,-0.079255,0)" /><polygon
   class="st1"
   points="157.06,14.65 153.92,14.65 138.24,0 141.38,0 "
   id="polygon40"
   style="fill:#b6dde2"
   transform="matrix(0.99068754,0,0,1.0238908,-0.079255,0)" /><polygon
   class="st1"
   points="164.73,14.65 161.6,14.65 145.92,0 149.06,0 "
   id="polygon42"
   style="fill:#b6dde2"
   transform="matrix(0.99068754,0,0,1.0238908,-0.079255,0)" /><polygon
   class="st1"
   points="172.41,14.65 169.27,14.65 153.59,0 156.73,0 "
   id="polygon44"
   style="fill:#b6dde2"
   transform="matrix(0.99068754,0,0,1.0238908,-0.079255,0)" /><polygon
   class="st1"
   points="180.09,14.65 176.95,14.65 161.27,0 164.41,0 "
   id="polygon46"
   style="fill:#b6dde2"
   transform="matrix(0.99068754,0,0,1.0238908,-0.079255,0)" /><polygon
   class="st1"
   points="187.76,14.65 184.62,14.65 168.95,0 172.08,0 "
   id="polygon48"
   style="fill:#b6dde2"
   transform="matrix(0.99068754,0,0,1.0238908,-0.079255,0)" /><polygon
   class="st1"
   points="195.44,14.65 192.3,14.65 176.62,0 179.76,0 "
   id="polygon50"
   style="fill:#b6dde2"
   transform="matrix(0.99068754,0,0,1.0238908,-0.079255,0)" /><polygon
   class="st1"
   points="203.11,14.65 199.97,14.65 184.3,0 187.44,0 "
   id="polygon52"
   style="fill:#b6dde2"
   transform="matrix(0.99068754,0,0,1.0238908,-0.079255,0)" /><polygon
   class="st1"
   points="210.79,14.65 207.65,14.65 191.97,0 195.11,0 "
   id="polygon54"
   style="fill:#b6dde2"
   transform="matrix(0.99068754,0,0,1.0238908,-0.079255,0)" /><polygon
   class="st1"
   points="218.46,14.65 215.32,14.65 199.65,0 202.79,0 "
   id="polygon56"
   style="fill:#b6dde2"
   transform="matrix(0.99068754,0,0,1.0238908,-0.079255,0)" /><polygon
   class="st1"
   points="226.14,14.65 223,14.65 207.32,0 210.46,0 "
   id="polygon58"
   style="fill:#b6dde2"
   transform="matrix(0.99068754,0,0,1.0238908,-0.079255,0)" /><polygon
   class="st1"
   points="233.82,14.65 230.68,14.65 215,0 218.14,0 "
   id="polygon60"
   style="fill:#b6dde2"
   transform="matrix(0.99068754,0,0,1.0238908,-0.079255,0)" /><polygon
   class="st1"
   points="241.49,14.65 238.35,14.65 222.68,0 225.81,0 "
   id="polygon62"
   style="fill:#b6dde2"
   transform="matrix(0.99068754,0,0,1.0238908,-0.079255,0)" /><polygon
   class="st1"
   points="249.17,14.65 246.03,14.65 230.35,0 233.49,0 "
   id="polygon64"
   style="fill:#b6dde2"
   transform="matrix(0.99068754,0,0,1.0238908,-0.079255,0)" /><polygon
   class="st1"
   points="256.84,14.65 253.7,14.65 238.03,0 241.17,0 "
   id="polygon66"
   style="fill:#b6dde2"
   transform="matrix(0.99068754,0,0,1.0238908,-0.079255,0)" /><polygon
   class="st1"
   points="264.52,14.65 261.38,14.65 245.7,0 248.84,0 "
   id="polygon68"
   style="fill:#b6dde2"
   transform="matrix(0.99068754,0,0,1.0238908,-0.079255,0)" /><polygon
   class="st1"
   points="272.19,14.65 269.05,14.65 253.38,0 256.52,0 "
   id="polygon70"
   style="fill:#b6dde2"
   transform="matrix(0.99068754,0,0,1.0238908,-0.079255,0)" /><polygon
   class="st1"
   points="279.87,14.65 276.73,14.65 261.05,0 264.19,0 "
   id="polygon72"
   style="fill:#b6dde2"
   transform="matrix(0.99068754,0,0,1.0238908,-0.079255,0)" /><polygon
   class="st1"
   points="287.54,14.65 284.41,14.65 268.73,0 271.87,0 "
   id="polygon74"
   style="fill:#b6dde2"
   transform="matrix(0.99068754,0,0,1.0238908,-0.079255,0)" /><polygon
   class="st1"
   points="295.22,14.65 292.08,14.65 276.4,0 279.54,0 "
   id="polygon76"
   style="fill:#b6dde2"
   transform="matrix(0.99068754,0,0,1.0238908,-0.079255,0)" /><polygon
   class="st1"
   points="302.9,14.65 299.76,14.65 284.08,0 287.22,0 "
   id="polygon78"
   style="fill:#b6dde2"
   transform="matrix(0.99068754,0,0,1.0238908,-0.079255,0)" /></svg>
