<?xml version="1.0" encoding="UTF-8"?><svg id="a" xmlns="http://www.w3.org/2000/svg" xmlns:xlink="http://www.w3.org/1999/xlink" viewBox="0 0 512 512"><defs><style>.c{fill:url(#b);}.d{fill:#fff;}</style><linearGradient id="b" x1="256" y1="514.89" x2="256" y2="-2.08" gradientTransform="matrix(1, 0, 0, 1, 0, 0)" gradientUnits="userSpaceOnUse"><stop offset="0" stop-color="#1c4062"/><stop offset=".24" stop-color="#125e7e"/><stop offset=".56" stop-color="#08819e"/><stop offset=".83" stop-color="#0297b1"/><stop offset="1" stop-color="#009fb9"/></linearGradient></defs><rect class="c" width="512" height="512" rx="14.84" ry="14.84"/><g><rect class="d" x="79.96" y="207.16" width="28.16" height="28.16"/><rect class="d" x="115.25" y="207.16" width="28.16" height="28.16"/><rect class="d" x="151.65" y="207.16" width="28.16" height="28.16"/><rect class="d" x="79.96" y="241.92" width="28.16" height="28.16"/><rect class="d" x="115.25" y="241.92" width="28.16" height="28.16"/><rect class="d" x="151.65" y="241.92" width="28.16" height="28.16"/><rect class="d" x="79.96" y="276.68" width="28.16" height="28.16"/><rect class="d" x="115.25" y="276.68" width="28.16" height="28.16"/><rect class="d" x="151.65" y="276.68" width="28.16" height="28.16"/></g><path class="d" d="M326.54,371.53c-63.71,0-115.53-51.83-115.53-115.53s51.83-115.53,115.53-115.53,115.53,51.83,115.53,115.53-51.83,115.53-115.53,115.53Zm0-222.8c-59.15,0-107.27,48.12-107.27,107.27s48.12,107.27,107.27,107.27,107.27-48.12,107.27-107.27-48.12-107.27-107.27-107.27Z"/><path class="d" d="M360.35,266.47c-.7,2.32-1.62,4.55-2.75,6.64l22.45,22.45-14.81,14.81-22.45-22.45c-2.1,1.13-4.32,2.05-6.64,2.75v31.75h-20.95v-31.75c-2.32-.7-4.55-1.62-6.64-2.75l-22.45,22.45-14.81-14.81,22.45-22.45c-1.13-2.1-2.05-4.32-2.75-6.64h-31.75v-20.95h31.75c.7-2.32,1.62-4.55,2.75-6.64l-22.45-22.45,14.81-14.81,22.45,22.45c2.1-1.13,4.32-2.05,6.64-2.75v-31.75h20.95v31.75c2.32,.7,4.55,1.62,6.64,2.75l22.45-22.45,14.81,14.81-22.45,22.45c1.13,2.1,2.05,4.32,2.75,6.64h31.75v20.95h-31.75Zm-35.08-33.06c-11.92,0-21.59,9.66-21.59,21.59s9.66,21.59,21.59,21.59,21.59-9.66,21.59-21.59-9.66-21.59-21.59-21.59Z"/><path class="d" d="M472.34,25.6H39.64c-7.75,0-14.05,6.3-14.05,14.05V115.5h-4.02V396.5h4.02v75.85c0,7.75,6.3,14.05,14.05,14.05H472.34c7.75,0,14.05-6.3,14.05-14.05V39.65c0-7.75-6.31-14.05-14.05-14.05Zm6.74,446.75c0,3.71-3.02,6.74-6.74,6.74H39.64c-3.72,0-6.74-3.02-6.74-6.74v-75.85h4V115.5h-4V39.65c0-3.71,3.02-6.74,6.74-6.74H472.34c3.71,0,6.74,3.02,6.74,6.74V472.35Z"/></svg>