<?xml version="1.0" encoding="UTF-8" standalone="no"?>
<!-- Created with Inkscape (http://www.inkscape.org/) -->

<svg
   xmlns:dc="http://purl.org/dc/elements/1.1/"
   xmlns:cc="http://creativecommons.org/ns#"
   xmlns:rdf="http://www.w3.org/1999/02/22-rdf-syntax-ns#"
   xmlns:svg="http://www.w3.org/2000/svg"
   xmlns="http://www.w3.org/2000/svg"
   xmlns:sodipodi="http://sodipodi.sourceforge.net/DTD/sodipodi-0.dtd"
   xmlns:inkscape="http://www.inkscape.org/namespaces/inkscape"
   width="128px"
   height="128px"
   viewBox="0 0 128 128"
   version="1.1"
   id="SVGRoot"
   inkscape:version="0.92.4 (5da689c313, 2019-01-14)"
   sodipodi:docname="minarca_128.svg">
  <sodipodi:namedview
     id="base"
     pagecolor="#ffffff"
     bordercolor="#666666"
     borderopacity="1.0"
     inkscape:pageopacity="0.0"
     inkscape:pageshadow="2"
     inkscape:zoom="11.313708"
     inkscape:cx="84.754414"
     inkscape:cy="60.310267"
     inkscape:document-units="px"
     inkscape:current-layer="layer1"
     showgrid="false"
     inkscape:window-width="2560"
     inkscape:window-height="1403"
     inkscape:window-x="2560"
     inkscape:window-y="0"
     inkscape:window-maximized="1"
     inkscape:grid-bbox="true" />
  <defs
     id="defs9287">
    <clipPath
       clipPathUnits="userSpaceOnUse"
       id="clipPath8592">
      <path
         d="m 1030.372,1980.117 c -3.534,0 -6.399,-2.865 -6.399,-6.399 v 0 -116.929 c 0,-3.534 2.865,-6.398 6.399,-6.398 v 0 h 116.929 c 3.533,0 6.399,2.864 6.399,6.398 v 0 116.929 c 0,3.534 -2.866,6.399 -6.399,6.399 v 0 z"
         id="path8590"
         inkscape:connector-curvature="0" />
    </clipPath>
    <linearGradient
       x1="0"
       y1="0"
       x2="1"
       y2="0"
       gradientUnits="userSpaceOnUse"
       gradientTransform="matrix(129.72675,0,0,-129.72675,1023.9732,1915.2537)"
       spreadMethod="pad"
       id="linearGradient8602">
      <stop
         style="stop-opacity:1;stop-color:#51686f"
         offset="0"
         id="stop8598" />
      <stop
         style="stop-opacity:1;stop-color:#3b4242"
         offset="1"
         id="stop8600" />
    </linearGradient>
    <clipPath
       clipPathUnits="userSpaceOnUse"
       id="clipPath8536">
      <path
         d="m 1082.709,2022.686 -1.516,-1.093 c -20.306,-14.665 -39.486,-28.517 -80.168,-30.395 v 0 l -9.992,-0.461 v -10.003 c 0,-38.325 7.065,-72.541 21,-101.7 v 0 c 15.516,-32.464 39.54,-58.637 71.407,-77.793 v 0 l 5.397,-3.243 5.397,3.243 c 31.866,19.156 55.891,45.329 71.406,77.793 v 0 c 13.934,29.159 21.001,63.375 21.001,101.7 v 0 10.003 l -9.993,0.461 c -40.682,1.878 -59.862,15.73 -80.168,30.395 v 0 l -1.515,1.093 -6.128,4.42 z m -81.202,-41.952 c 44.873,2.071 66.275,18.269 87.33,33.456 v 0 c 21.055,-15.187 42.456,-31.385 87.328,-33.456 v 0 c 0,-69.771 -24.162,-132.545 -87.328,-170.515 v 0 c -63.167,37.97 -87.33,100.744 -87.33,170.515"
         id="path8534"
         inkscape:connector-curvature="0" />
    </clipPath>
    <linearGradient
       x1="0"
       y1="0"
       x2="1"
       y2="0"
       gradientUnits="userSpaceOnUse"
       gradientTransform="matrix(123.26698,176.0435,176.0435,-123.26698,1017.9578,1846.494)"
       spreadMethod="pad"
       id="linearGradient8552">
      <stop
         style="stop-opacity:1;stop-color:#ffe694"
         offset="0"
         id="stop8542" />
      <stop
         style="stop-opacity:1;stop-color:#ffd965"
         offset="0.201927"
         id="stop8544" />
      <stop
         style="stop-opacity:1;stop-color:#e63812"
         offset="0.600062"
         id="stop8546" />
      <stop
         style="stop-opacity:1;stop-color:#b43008"
         offset="0.99898"
         id="stop8548" />
      <stop
         style="stop-opacity:1;stop-color:#b43008"
         offset="1"
         id="stop8550" />
    </linearGradient>
    <clipPath
       clipPathUnits="userSpaceOnUse"
       id="clipPath8508">
      <path
         d="m 1001.507,1980.734 c 0,-69.771 24.163,-132.545 87.33,-170.515 v 0 c 63.166,37.97 87.328,100.744 87.328,170.515 v 0 c -44.872,2.071 -66.273,18.269 -87.328,33.456 v 0 c -21.055,-15.187 -42.457,-31.385 -87.33,-33.456"
         id="path8506"
         inkscape:connector-curvature="0" />
    </clipPath>
    <linearGradient
       x1="0"
       y1="0"
       x2="1"
       y2="0"
       gradientUnits="userSpaceOnUse"
       gradientTransform="matrix(6.6185274,202.76762,202.76762,-6.6185274,1083.348,1810.1642)"
       spreadMethod="pad"
       id="linearGradient8526">
      <stop
         style="stop-opacity:1;stop-color:#ffe694"
         offset="0"
         id="stop8514" />
      <stop
         style="stop-opacity:1;stop-color:#ffe694"
         offset="0.00705109"
         id="stop8516" />
      <stop
         style="stop-opacity:1;stop-color:#ffd965"
         offset="0.271494"
         id="stop8518" />
      <stop
         style="stop-opacity:1;stop-color:#f9b142"
         offset="0.537047"
         id="stop8520" />
      <stop
         style="stop-opacity:1;stop-color:#e63812"
         offset="0.891364"
         id="stop8522" />
      <stop
         style="stop-opacity:1;stop-color:#e63812"
         offset="1"
         id="stop8524" />
    </linearGradient>
  </defs>
  <metadata
     id="metadata9290">
    <rdf:RDF>
      <cc:Work
         rdf:about="">
        <dc:format>image/svg+xml</dc:format>
        <dc:type
           rdf:resource="http://purl.org/dc/dcmitype/StillImage" />
        <dc:title />
      </cc:Work>
    </rdf:RDF>
  </metadata>
  <g
     id="layer1"
     inkscape:groupmode="layer"
     inkscape:label="Layer 1">
    <g
       transform="matrix(0.59304165,0,0,-0.59178142,-581.7257,1195.8012)"
       id="g8502">
      <g
         id="g8504"
         clip-path="url(#clipPath8508)">
        <g
           id="g8510">
          <g
             id="g8512">
            <path
               d="m 1001.507,1980.734 c 0,-69.771 24.163,-132.545 87.33,-170.515 v 0 c 63.166,37.97 87.328,100.744 87.328,170.515 v 0 c -44.872,2.071 -66.273,18.269 -87.328,33.456 v 0 c -21.055,-15.187 -42.457,-31.385 -87.33,-33.456"
               style="fill:url(#linearGradient8526);stroke:none"
               id="path8528"
               inkscape:connector-curvature="0" />
          </g>
        </g>
      </g>
    </g>
    <g
       transform="matrix(0.55868848,0,0,-0.55868848,-544.32069,1132.5208)"
       id="g8530">
      <g
         id="g8532"
         clip-path="url(#clipPath8536)">
        <g
           id="g8538">
          <g
             id="g8540">
            <path
               d="m 1082.709,2022.686 -1.516,-1.093 c -20.306,-14.665 -39.486,-28.517 -80.168,-30.395 v 0 l -9.992,-0.461 v -10.003 c 0,-38.325 7.065,-72.541 21,-101.7 v 0 c 15.516,-32.464 39.54,-58.637 71.407,-77.793 v 0 l 5.397,-3.243 5.397,3.243 c 31.866,19.156 55.891,45.329 71.406,77.793 v 0 c 13.934,29.159 21.001,63.375 21.001,101.7 v 0 10.003 l -9.993,0.461 c -40.682,1.878 -59.862,15.73 -80.168,30.395 v 0 l -1.515,1.093 -6.128,4.42 z m -81.202,-41.952 c 44.873,2.071 66.275,18.269 87.33,33.456 v 0 c 21.055,-15.187 42.456,-31.385 87.328,-33.456 v 0 c 0,-69.771 -24.162,-132.545 -87.328,-170.515 v 0 c -63.167,37.97 -87.33,100.744 -87.33,170.515"
               style="fill:url(#linearGradient8552);stroke:none"
               id="path8554"
               inkscape:connector-curvature="0" />
          </g>
        </g>
      </g>
    </g>
    <g
       transform="matrix(0.55868848,0,0,-0.55868848,-544.32069,1132.5208)"
       id="g8586">
      <g
         id="g8588"
         clip-path="url(#clipPath8592)">
        <g
           id="g8594">
          <g
             id="g8596">
            <path
               d="m 1030.372,1980.117 c -3.534,0 -6.399,-2.865 -6.399,-6.399 v 0 -116.929 c 0,-3.534 2.865,-6.398 6.399,-6.398 v 0 h 116.929 c 3.533,0 6.399,2.864 6.399,6.398 v 0 116.929 c 0,3.534 -2.866,6.399 -6.399,6.399 v 0 z"
               style="fill:url(#linearGradient8602);stroke:none"
               id="path8604"
               inkscape:connector-curvature="0" />
          </g>
        </g>
      </g>
    </g>
    <path
       inkscape:connector-curvature="0"
       id="path8616"
       style="fill:none;stroke:#ffffff;stroke-width:1.26095986;stroke-linecap:butt;stroke-linejoin:miter;stroke-miterlimit:10;stroke-dasharray:none;stroke-opacity:1"
       d="M 31.528343,30.01941 H 96.470848 V 94.96136 H 31.528343" />
    <path
       inkscape:connector-curvature="0"
       id="path8620"
       style="fill:#ffffff;fill-opacity:1;fill-rule:nonzero;stroke:none;stroke-width:0.55868846"
       d="m 75.039506,65.31986 c -1.562655,0 -2.829199,-1.2671 -2.829199,-2.82919 0,-1.56265 1.266544,-2.82976 2.829199,-2.82976 1.56265,0 2.829199,1.26711 2.829199,2.82976 0,1.56209 -1.266549,2.82919 -2.829199,2.82919 m 9.371997,-4.28346 h -5.861201 l 4.144352,-4.14435 -2.056532,-2.05709 -4.143791,4.14435 v -5.86064 h -2.909093 v 5.86064 l -4.144352,-4.14435 -2.056533,2.05709 4.144353,4.14435 h -5.861201 v 2.90853 h 5.861201 l -4.144353,4.14436 2.056533,2.05653 4.144352,-4.14435 v 5.8612 h 2.909093 v -5.8612 l 4.143791,4.14435 2.056532,-2.05653 -4.144352,-4.14436 h 5.861201 z" />
    <path
       inkscape:connector-curvature="0"
       id="path8624"
       style="fill:none;stroke:#ffffff;stroke-width:2.0470345;stroke-linecap:butt;stroke-linejoin:miter;stroke-miterlimit:10;stroke-dasharray:none;stroke-opacity:1"
       d="m 90.591102,62.49044 c 0,8.58928 -6.962934,15.55166 -15.551655,15.55166 -8.588716,0 -15.55165,-6.96238 -15.55165,-15.55166 0,-8.58871 6.962934,-15.55165 15.55165,-15.55165 8.588721,0 15.551655,6.96294 15.551655,15.55165 z" />
    <path
       inkscape:connector-curvature="0"
       id="path8628"
       style="fill:none;stroke:#ffffff;stroke-width:1.75092971;stroke-linecap:butt;stroke-linejoin:miter;stroke-miterlimit:10;stroke-dasharray:none;stroke-opacity:1"
       d="m 79.550469,62.49044 c 0,-2.49119 -2.019659,-4.51029 -4.510854,-4.51029 -2.491191,0 -4.51085,2.0191 -4.51085,4.51029 0,2.49119 2.019659,4.51085 4.51085,4.51085 2.491195,0 4.510854,-2.01966 4.510854,-4.51085 z" />
    <path
       inkscape:connector-curvature="0"
       id="path8632"
       style="fill:#ffffff;fill-opacity:1;fill-rule:nonzero;stroke:none;stroke-width:0.55868846"
       d="m 32.653932,49.58714 h -2.287829 c -0.205039,0 -0.371528,-0.16593 -0.371528,-0.37097 V 35.51881 c 0,-0.20504 0.166489,-0.37153 0.371528,-0.37153 h 2.287829 c 0.205039,0 0.371528,0.16649 0.371528,0.37153 v 13.69736 c 0,0.20504 -0.166489,0.37097 -0.371528,0.37097" />
    <path
       inkscape:connector-curvature="0"
       id="path8636"
       style="fill:#ffffff;fill-opacity:1;fill-rule:nonzero;stroke:none;stroke-width:0.55868846"
       d="m 32.653932,89.83344 h -2.287829 c -0.205039,0 -0.371528,-0.16593 -0.371528,-0.37097 V 75.76455 c 0,-0.20448 0.166489,-0.37097 0.371528,-0.37097 h 2.287829 c 0.205039,0 0.371528,0.16649 0.371528,0.37097 v 13.69792 c 0,0.20504 -0.166489,0.37097 -0.371528,0.37097" />
    <path
       d="m 44.214594,59.43604 h -3.7488 v -3.7488 h 3.7488 z"
       style="fill:#ffffff;fill-opacity:1;fill-rule:nonzero;stroke:none;stroke-width:0.55868846"
       id="path8638"
       inkscape:connector-curvature="0" />
    <path
       d="m 49.212621,59.43604 h -3.7488 v -3.7488 h 3.7488 z"
       style="fill:#ffffff;fill-opacity:1;fill-rule:nonzero;stroke:none;stroke-width:0.55868846"
       id="path8640"
       inkscape:connector-curvature="0" />
    <path
       d="m 54.211208,59.43604 h -3.748801 v -3.7488 h 3.748801 z"
       style="fill:#ffffff;fill-opacity:1;fill-rule:nonzero;stroke:none;stroke-width:0.55868846"
       id="path8642"
       inkscape:connector-curvature="0" />
    <path
       d="m 44.214594,64.36535 h -3.7488 v -3.7488 h 3.7488 z"
       style="fill:#ffffff;fill-opacity:1;fill-rule:nonzero;stroke:none;stroke-width:0.55868846"
       id="path8644"
       inkscape:connector-curvature="0" />
    <path
       d="m 49.212621,64.36535 h -3.7488 v -3.7488 h 3.7488 z"
       style="fill:#ffffff;fill-opacity:1;fill-rule:nonzero;stroke:none;stroke-width:0.55868846"
       id="path8646"
       inkscape:connector-curvature="0" />
    <path
       d="m 54.211208,64.36535 h -3.748801 v -3.7488 h 3.748801 z"
       style="fill:#ffffff;fill-opacity:1;fill-rule:nonzero;stroke:none;stroke-width:0.55868846"
       id="path8648"
       inkscape:connector-curvature="0" />
    <path
       d="m 44.214594,69.2941 h -3.7488 v -3.7488 h 3.7488 z"
       style="fill:#ffffff;fill-opacity:1;fill-rule:nonzero;stroke:none;stroke-width:0.55868846"
       id="path8650"
       inkscape:connector-curvature="0" />
    <path
       d="m 49.212621,69.2941 h -3.7488 v -3.7488 h 3.7488 z"
       style="fill:#ffffff;fill-opacity:1;fill-rule:nonzero;stroke:none;stroke-width:0.55868846"
       id="path8652"
       inkscape:connector-curvature="0" />
    <path
       d="m 54.211208,69.2941 h -3.748801 v -3.7488 h 3.748801 z"
       style="fill:#ffffff;fill-opacity:1;fill-rule:nonzero;stroke:none;stroke-width:0.55868846"
       id="path8654"
       inkscape:connector-curvature="0" />
  </g>
</svg>
