<?xml version="1.0" encoding="UTF-8" standalone="no"?>
<!-- Created with Inkscape (http://www.inkscape.org/) -->

<svg
   xmlns:dc="http://purl.org/dc/elements/1.1/"
   xmlns:cc="http://creativecommons.org/ns#"
   xmlns:rdf="http://www.w3.org/1999/02/22-rdf-syntax-ns#"
   xmlns:svg="http://www.w3.org/2000/svg"
   xmlns="http://www.w3.org/2000/svg"
   xmlns:sodipodi="http://sodipodi.sourceforge.net/DTD/sodipodi-0.dtd"
   xmlns:inkscape="http://www.inkscape.org/namespaces/inkscape"
   width="32"
   height="32"
   id="svg3344"
   version="1.1"
   inkscape:version="0.48.5 r10040"
   sodipodi:docname="minarca_32.svg">
  <defs
     id="defs3346" />
  <sodipodi:namedview
     id="base"
     pagecolor="#ffffff"
     bordercolor="#666666"
     borderopacity="1.0"
     inkscape:pageopacity="0.0"
     inkscape:pageshadow="2"
     inkscape:zoom="32"
     inkscape:cx="15.967948"
     inkscape:cy="14.635718"
     inkscape:current-layer="layer1"
     showgrid="true"
     inkscape:grid-bbox="true"
     inkscape:document-units="px"
     inkscape:window-width="2560"
     inkscape:window-height="1374"
     inkscape:window-x="0"
     inkscape:window-y="27"
     inkscape:window-maximized="1">
    <inkscape:grid
       type="xygrid"
       id="grid3570"
       empspacing="5"
       visible="true"
       enabled="true"
       snapvisiblegridlinesonly="true" />
  </sodipodi:namedview>
  <metadata
     id="metadata3349">
    <rdf:RDF>
      <cc:Work
         rdf:about="">
        <dc:format>image/svg+xml</dc:format>
        <dc:type
           rdf:resource="http://purl.org/dc/dcmitype/StillImage" />
        <dc:title />
      </cc:Work>
    </rdf:RDF>
  </metadata>
  <g
     id="layer1"
     inkscape:label="Layer 1"
     inkscape:groupmode="layer"
     transform="translate(0,-16)">
    <path
       style="fill:#000000;fill-opacity:1;stroke:none"
       d="M 6.0000001,19.999999 6,41 l 21,0 0,-2.333333 -0.666667,0 0,-4 0.666667,0 0,-8 -0.666667,0 0,-4 0.666667,0 L 27,20 z m 10.0624999,3.229167 0.75,2.770833 c 1.065696,0.03276 2.079418,0.430979 2.875,1.104167 l 2.395834,-1.541667 1.458333,2.229167 -2.416667,1.5625 c 0.01049,0.03577 0.03197,0.06797 0.04167,0.104167 0.275307,1.027458 0.188136,2.06594 -0.1875,2.979166 l 2.229167,1.8125 -1.6875,2.0625 -2.229167,-1.791666 c -0.420551,0.28546 -0.898019,0.506862 -1.416667,0.645833 -0.523536,0.140281 -1.051065,0.184697 -1.5625,0.145833 l -1.020833,2.6875 -2.5,-0.958333 1.020833,-2.6875 C 13.031485,33.751185 12.44176,32.90165 12.16667,31.874999 c -0.01122,-0.04188 -0.01082,-0.08309 -0.02083,-0.125 L 9.2708395,31.604166 9.4166728,28.958333 12.27084,29.104166 c 0.351572,-0.98668 1.025996,-1.832418 1.9375,-2.395834 l -0.729173,-2.770833 z"
       id="rect3024-2"
       inkscape:connector-curvature="0"
       sodipodi:nodetypes="ccccccccccccccccccccccccscccccccccccc" />
    <path
       transform="matrix(0.24148146,-0.06470476,0.06470476,0.24148146,2.6941725,21.98727)"
       d="m 53,48 c 0,4.418278 -3.581722,8 -8,8 -4.418278,0 -8,-3.581722 -8,-8 0,-4.418278 3.581722,-8 8,-8 4.418278,0 8,3.581722 8,8 z"
       sodipodi:ry="8"
       sodipodi:rx="8"
       sodipodi:cy="48"
       sodipodi:cx="45"
       id="path3387"
       style="fill:#000000;fill-opacity:1;stroke:none"
       sodipodi:type="arc" />
    <path
       inkscape:connector-curvature="0"
       style="fill:#000000;fill-opacity:1;stroke:none"
       d="m 4,15.999999 c -1.1079998,0 -2,0.892 -2,2 l 0,25.333334 c 0,1.108 0.8920002,2 2,2 l 25,10e-7 c 1.108,0 2,-0.892 2,-2 L 31,18 c 0,-1.108 -0.892,-2 -2,-2 z m 4.3333335,1 c 0.1840946,0 0.3333333,0.149238 0.3333333,0.333333 0,0.184095 -0.1492387,0.333334 -0.3333333,0.333334 -0.183814,0 -0.3329367,-0.14952 -0.3333334,-0.333334 0,-0.184095 0.1492387,-0.333333 0.3333334,-0.333333 z m 5.3333335,0 c 0.184095,0 0.333333,0.149238 0.333333,0.333333 0,0.184095 -0.149238,0.333334 -0.333333,0.333334 -0.183814,0 -0.332937,-0.14952 -0.333333,-0.333334 0,-0.184095 0.149238,-0.333333 0.333333,-0.333333 z m 6,0 c 0.184095,0 0.333333,0.149238 0.333333,0.333333 0,0.184095 -0.149238,0.333334 -0.333333,0.333334 -0.183814,0 -0.332937,-0.14952 -0.333333,-0.333334 0,-0.184095 0.149238,-0.333333 0.333333,-0.333333 z m 5.333333,0 c 0.184095,0 0.333334,0.149238 0.333334,0.333333 0,0.184095 -0.149239,0.333334 -0.333334,0.333334 -0.183814,0 -0.332936,-0.14952 -0.333333,-0.333334 0,-0.184095 0.149239,-0.333333 0.333333,-0.333333 z m -20.3333333,1.666667 23.6666663,1e-6 0,4 0.666667,0 0,4 -0.666667,0 0,8 0.666667,0 0,4 -0.666667,0 0,4 -23.6666663,-10e-7 z m -1.3333333,3.333333 c 0.1838142,0 0.332937,0.149519 0.3333333,0.333333 0,0.184095 -0.1492384,0.333334 -0.3333333,0.333334 C 3.1492384,22.666666 3,22.517427 3,22.333332 3,22.149238 3.1492384,21.999999 3.3333334,21.999999 z M 29.666667,22 c 0.183814,0 0.332936,0.149519 0.333333,0.333333 0,0.184095 -0.149239,0.333334 -0.333333,0.333334 -0.184095,0 -0.333334,-0.149239 -0.333334,-0.333334 C 29.333333,22.149239 29.482572,22 29.666667,22 z M 3.3333334,27.333333 c 0.1838142,0 0.332937,0.149519 0.3333333,0.333333 0,0.184095 -0.1492384,0.333333 -0.3333333,0.333333 C 3.1492384,27.999999 3,27.850761 3,27.666666 3,27.482571 3.1492384,27.333333 3.3333334,27.333333 z m 26.3333336,1e-6 c 0.183814,0 0.332936,0.149519 0.333333,0.333333 C 30,27.850762 29.850761,28 29.666667,28 c -0.184095,0 -0.333334,-0.149238 -0.333334,-0.333333 0,-0.184095 0.149239,-0.333333 0.333334,-0.333333 z M 3.3333334,33.333333 c 0.1838142,0 0.332937,0.149519 0.3333333,0.333333 0,0.184095 -0.1492384,0.333333 -0.3333333,0.333333 C 3.1492384,33.999999 3,33.850761 3,33.666666 3,33.482571 3.1492384,33.333333 3.3333334,33.333333 z m 26.3333336,10e-7 c 0.183814,0 0.332936,0.149519 0.333333,0.333333 C 30,33.850762 29.850761,34 29.666667,34 c -0.184095,0 -0.333334,-0.149238 -0.333334,-0.333333 0,-0.184095 0.149239,-0.333333 0.333334,-0.333333 z M 3.3333334,38.666666 c 0.1838142,0 0.332937,0.149519 0.3333333,0.333333 0,0.184095 -0.1492384,0.333334 -0.3333333,0.333334 C 3.1492384,39.333333 3,39.184094 3,38.999999 3,38.815905 3.1492384,38.666666 3.3333334,38.666666 z m 26.3333336,10e-7 c 0.183814,0 0.332936,0.149519 0.333333,0.333333 0,0.184095 -0.149239,0.333334 -0.333333,0.333334 -0.184095,0 -0.333334,-0.149239 -0.333334,-0.333334 0,-0.184094 0.149239,-0.333333 0.333334,-0.333333 z M 8.3333335,43.666666 c 0.1840946,0 0.3333333,0.149239 0.3333333,0.333334 0,0.184094 -0.1492387,0.333333 -0.3333333,0.333333 -0.183814,0 -0.3329367,-0.149519 -0.3333334,-0.333333 0,-0.184095 0.1492387,-0.333334 0.3333334,-0.333334 z m 5.3333335,0 C 13.850762,43.666666 14,43.815905 14,44 c 0,0.184094 -0.149238,0.333333 -0.333333,0.333333 -0.183814,0 -0.332937,-0.149519 -0.333333,-0.333333 0,-0.184095 0.149238,-0.333334 0.333333,-0.333334 z m 6,0 C 19.850762,43.666666 20,43.815905 20,44 c 0,0.184094 -0.149238,0.333333 -0.333333,0.333333 -0.183814,0 -0.332937,-0.149519 -0.333333,-0.333333 0,-0.184095 0.149238,-0.333334 0.333333,-0.333334 z m 5.333333,0 c 0.184095,0 0.333334,0.149239 0.333334,0.333334 0,0.184094 -0.149239,0.333333 -0.333334,0.333333 -0.183814,0 -0.332936,-0.149519 -0.333333,-0.333333 0,-0.184095 0.149239,-0.333334 0.333333,-0.333334 z"
       id="rect3020"
       sodipodi:nodetypes="sssssssssssscsssscsssscsssscscccccccccccccscsssscsssscsssscsssscsssscsssscsssscsssssscsssscsssscsssscs" />
    <rect
       style="fill:#000000;fill-opacity:1;stroke:none"
       id="rect3028"
       width="4"
       height="2"
       x="5"
       y="46" />
    <rect
       y="46"
       x="24"
       height="1.9999809"
       width="4.0000076"
       id="rect3030"
       style="fill:#000000;fill-opacity:1;stroke:none" />
  </g>
</svg>
