<?xml version="1.0" encoding="UTF-8" standalone="no"?>
<!-- Created with Inkscape (http://www.inkscape.org/) -->

<svg
   xmlns:dc="http://purl.org/dc/elements/1.1/"
   xmlns:cc="http://creativecommons.org/ns#"
   xmlns:rdf="http://www.w3.org/1999/02/22-rdf-syntax-ns#"
   xmlns:svg="http://www.w3.org/2000/svg"
   xmlns="http://www.w3.org/2000/svg"
   xmlns:sodipodi="http://sodipodi.sourceforge.net/DTD/sodipodi-0.dtd"
   xmlns:inkscape="http://www.inkscape.org/namespaces/inkscape"
   version="1.1"
   id="svg2"
   xml:space="preserve"
   width="256"
   height="256"
   viewBox="0 0 256 256"
   sodipodi:docname="minarca.svg"
   inkscape:version="0.92.4 (5da689c313, 2019-01-14)"
   inkscape:export-filename="minarca.png"
   inkscape:export-xdpi="96"
   inkscape:export-ydpi="96"><metadata
     id="metadata8"><rdf:RDF><cc:Work
         rdf:about=""><dc:format>image/svg+xml</dc:format><dc:type
           rdf:resource="http://purl.org/dc/dcmitype/StillImage" /><dc:title></dc:title></cc:Work></rdf:RDF></metadata><defs
     id="defs6"><clipPath
       clipPathUnits="userSpaceOnUse"
       id="clipPath18"><path
         d="M 0,341.481 H 481.93 V 0 H 0 Z"
         id="path16"
         inkscape:connector-curvature="0" /></clipPath><clipPath
       clipPathUnits="userSpaceOnUse"
       id="clipPath52"><path
         d="m 124.889,338.098 c -4.44,0 -8.039,-3.599 -8.039,-8.039 v 0 -233.48 c 0,-4.441 3.599,-8.04 8.039,-8.04 v 0 h 233.48 c 4.441,0 8.04,3.599 8.04,8.04 v 0 233.48 c 0,4.44 -3.599,8.039 -8.04,8.039 v 0 z"
         id="path50"
         inkscape:connector-curvature="0" /></clipPath><linearGradient
       x1="0"
       y1="0"
       x2="1"
       y2="0"
       gradientUnits="userSpaceOnUse"
       gradientTransform="matrix(0,-245.7939,-245.7939,0,241.62927,333.99335)"
       spreadMethod="pad"
       id="linearGradient62"><stop
         style="stop-opacity:1;stop-color:#009cb6"
         offset="0"
         id="stop58" /><stop
         style="stop-opacity:1;stop-color:#173b5e"
         offset="1"
         id="stop60" /></linearGradient><clipPath
       clipPathUnits="userSpaceOnUse"
       id="clipPath72"><path
         d="M 0,341.481 H 481.93 V 0 H 0 Z"
         id="path70"
         inkscape:connector-curvature="0" /></clipPath></defs><sodipodi:namedview
     pagecolor="#ffffff"
     bordercolor="#666666"
     borderopacity="1"
     objecttolerance="10"
     gridtolerance="10"
     guidetolerance="10"
     inkscape:pageopacity="0"
     inkscape:pageshadow="2"
     inkscape:window-width="1920"
     inkscape:window-height="1016"
     id="namedview4"
     showgrid="false"
     inkscape:zoom="0.73302993"
     inkscape:cx="200.94574"
     inkscape:cy="126.55411"
     inkscape:window-x="0"
     inkscape:window-y="27"
     inkscape:window-maximized="1"
     inkscape:current-layer="g10"
     fit-margin-top="0"
     fit-margin-left="0"
     fit-margin-right="0"
     fit-margin-bottom="0" /><g
     id="g10"
     inkscape:groupmode="layer"
     inkscape:label="logo Minarca v1"
     transform="matrix(1.3333333,0,0,-1.3333333,-155.8,374.052)"><g
       id="g46"
       transform="matrix(0.76935717,0,0,0.76935717,26.950615,20.420886)"><g
         id="g48"
         clip-path="url(#clipPath52)"><g
           id="g54"><g
             id="g56"><path
               d="m 124.889,338.098 c -4.44,0 -8.039,-3.599 -8.039,-8.039 v 0 -233.48 c 0,-4.441 3.599,-8.04 8.039,-8.04 v 0 h 233.48 c 4.441,0 8.04,3.599 8.04,8.04 v 0 233.48 c 0,4.44 -3.599,8.039 -8.04,8.039 v 0 z"
               style="fill:url(#linearGradient62);stroke:none"
               id="path64"
               inkscape:connector-curvature="0" /></g></g></g></g><g
       id="g66"
       transform="matrix(0.76935717,0,0,0.76935717,26.950615,20.420886)"><g
         id="g68"
         clip-path="url(#clipPath72)"><g
           id="g74"
           transform="translate(129.8213,325.127)"><path
             d="M 0,0 H 223.616 V -223.616 H 0"
             style="fill:none;stroke:#ffffff;stroke-width:2.83599997;stroke-linecap:butt;stroke-linejoin:miter;stroke-miterlimit:10;stroke-dasharray:none;stroke-opacity:1"
             id="path76"
             inkscape:connector-curvature="0" /></g><g
           id="g78"
           transform="translate(279.6426,203.5767)"><path
             d="m 0,0 c -5.381,0 -9.742,4.362 -9.742,9.742 0,5.381 4.361,9.742 9.742,9.742 5.381,0 9.742,-4.361 9.742,-9.742 C 9.742,4.362 5.381,0 0,0 M 32.271,14.75 H 12.089 L 26.359,29.02 19.277,36.102 5.008,21.832 V 42.013 H -5.008 V 21.832 l -14.27,14.27 -7.082,-7.082 14.271,-14.27 H -32.271 V 4.735 h 20.182 l -14.271,-14.271 7.082,-7.081 14.27,14.27 V -22.528 H 5.008 v 20.181 l 14.269,-14.27 7.082,7.081 -14.27,14.271 h 20.182 z"
             style="fill:#ffffff;fill-opacity:1;fill-rule:nonzero;stroke:none"
             id="path80"
             inkscape:connector-curvature="0" /></g><g
           id="g82"
           transform="translate(333.1914,213.3188)"><path
             d="m 0,0 c 0,-29.574 -23.975,-53.549 -53.549,-53.549 -29.574,0 -53.549,23.975 -53.549,53.549 0,29.574 23.975,53.549 53.549,53.549 C -23.975,53.549 0,29.574 0,0 Z"
             style="fill:none;stroke:#ffffff;stroke-width:4.60400009;stroke-linecap:butt;stroke-linejoin:miter;stroke-miterlimit:10;stroke-dasharray:none;stroke-opacity:1"
             id="path84"
             inkscape:connector-curvature="0" /></g><g
           id="g86"
           transform="translate(295.1748,213.3188)"><path
             d="m 0,0 c 0,8.578 -6.954,15.532 -15.532,15.532 -8.578,0 -15.532,-6.954 -15.532,-15.532 0,-8.578 6.954,-15.532 15.532,-15.532 C -6.954,-15.532 0,-8.578 0,0 Z"
             style="fill:none;stroke:#ffffff;stroke-width:3.93799996;stroke-linecap:butt;stroke-linejoin:miter;stroke-miterlimit:10;stroke-dasharray:none;stroke-opacity:1"
             id="path88"
             inkscape:connector-curvature="0" /></g><g
           id="g90"
           transform="translate(134.1401,257.7485)"><path
             d="M 0,0 H -8.765 C -9.226,0 -9.6,0.374 -9.6,0.835 v 48.05 c 0,0.462 0.374,0.836 0.835,0.836 H 0 c 0.461,0 0.835,-0.374 0.835,-0.836 V 0.835 C 0.835,0.374 0.461,0 0,0"
             style="fill:#ffffff;fill-opacity:1;fill-rule:nonzero;stroke:none"
             id="path92"
             inkscape:connector-curvature="0" /></g><g
           id="g94"
           transform="translate(134.1401,119.1689)"><path
             d="M 0,0 H -8.765 C -9.226,0 -9.6,0.374 -9.6,0.835 v 48.05 c 0,0.462 0.374,0.835 0.835,0.835 H 0 c 0.461,0 0.835,-0.373 0.835,-0.835 V 0.835 C 0.835,0.374 0.461,0 0,0"
             style="fill:#ffffff;fill-opacity:1;fill-rule:nonzero;stroke:none"
             id="path96"
             inkscape:connector-curvature="0" /></g><path
           d="m 173.502,223.837 h -12.908 v 12.908 h 12.908 z"
           style="fill:#ffffff;fill-opacity:1;fill-rule:nonzero;stroke:none"
           id="path98"
           inkscape:connector-curvature="0" /><path
           d="m 190.713,223.837 h -12.908 v 12.908 h 12.908 z"
           style="fill:#ffffff;fill-opacity:1;fill-rule:nonzero;stroke:none"
           id="path100"
           inkscape:connector-curvature="0" /><path
           d="m 207.924,223.837 h -12.908 v 12.908 h 12.908 z"
           style="fill:#ffffff;fill-opacity:1;fill-rule:nonzero;stroke:none"
           id="path102"
           inkscape:connector-curvature="0" /><path
           d="m 173.502,206.865 h -12.908 v 12.908 h 12.908 z"
           style="fill:#ffffff;fill-opacity:1;fill-rule:nonzero;stroke:none"
           id="path104"
           inkscape:connector-curvature="0" /><path
           d="m 190.713,206.865 h -12.908 v 12.908 h 12.908 z"
           style="fill:#ffffff;fill-opacity:1;fill-rule:nonzero;stroke:none"
           id="path106"
           inkscape:connector-curvature="0" /><path
           d="m 207.924,206.865 h -12.908 v 12.908 h 12.908 z"
           style="fill:#ffffff;fill-opacity:1;fill-rule:nonzero;stroke:none"
           id="path108"
           inkscape:connector-curvature="0" /><path
           d="m 173.502,189.893 h -12.908 v 12.908 h 12.908 z"
           style="fill:#ffffff;fill-opacity:1;fill-rule:nonzero;stroke:none"
           id="path110"
           inkscape:connector-curvature="0" /><path
           d="m 190.713,189.893 h -12.908 v 12.908 h 12.908 z"
           style="fill:#ffffff;fill-opacity:1;fill-rule:nonzero;stroke:none"
           id="path112"
           inkscape:connector-curvature="0" /><path
           d="m 207.924,189.893 h -12.908 v 12.908 h 12.908 z"
           style="fill:#ffffff;fill-opacity:1;fill-rule:nonzero;stroke:none"
           id="path114"
           inkscape:connector-curvature="0" /></g></g></g></svg>