<?xml version="1.0" encoding="UTF-8" standalone="no"?>
<!-- Created with Inkscape (http://www.inkscape.org/) -->

<svg
   xmlns:dc="http://purl.org/dc/elements/1.1/"
   xmlns:cc="http://creativecommons.org/ns#"
   xmlns:rdf="http://www.w3.org/1999/02/22-rdf-syntax-ns#"
   xmlns:svg="http://www.w3.org/2000/svg"
   xmlns="http://www.w3.org/2000/svg"
   xmlns:sodipodi="http://sodipodi.sourceforge.net/DTD/sodipodi-0.dtd"
   xmlns:inkscape="http://www.inkscape.org/namespaces/inkscape"
   width="32"
   height="32"
   id="svg3344"
   version="1.1"
   inkscape:version="0.48.5 r10040"
   sodipodi:docname="minarca_32.svg">
  <defs
     id="defs3346" />
  <sodipodi:namedview
     id="base"
     pagecolor="#ffffff"
     bordercolor="#666666"
     borderopacity="1.0"
     inkscape:pageopacity="0.0"
     inkscape:pageshadow="2"
     inkscape:zoom="22.627417"
     inkscape:cx="11.881895"
     inkscape:cy="16.048337"
     inkscape:current-layer="layer1"
     showgrid="true"
     inkscape:grid-bbox="true"
     inkscape:document-units="px"
     inkscape:window-width="1920"
     inkscape:window-height="1014"
     inkscape:window-x="0"
     inkscape:window-y="27"
     inkscape:window-maximized="1"
     showguides="true"
     inkscape:guide-bbox="true">
    <inkscape:grid
       type="xygrid"
       id="grid3570"
       empspacing="5"
       visible="true"
       enabled="true"
       snapvisiblegridlinesonly="true" />
  </sodipodi:namedview>
  <metadata
     id="metadata3349">
    <rdf:RDF>
      <cc:Work
         rdf:about="">
        <dc:format>image/svg+xml</dc:format>
        <dc:type
           rdf:resource="http://purl.org/dc/dcmitype/StillImage" />
        <dc:title />
      </cc:Work>
    </rdf:RDF>
  </metadata>
  <g
     id="layer1"
     inkscape:label="Layer 1"
     inkscape:groupmode="layer"
     transform="translate(0,-16)">
    <path
       style="fill:#000000;fill-opacity:1;stroke:none"
       d="M 6.0000001,20.999999 6,42 l 21,0 0,-2 -0.666667,0 0,-4 L 27,36 l 0,-9 -0.666667,0 0,-4 L 27,23 27,21 z m 10.0624999,3.229167 0.75,2.770833 c 1.065696,0.03276 2.079418,0.430979 2.875,1.104167 l 2.395834,-1.541667 1.458333,2.229167 -2.416667,1.5625 c 0.01049,0.03577 0.03197,0.06797 0.04167,0.104167 0.275307,1.027458 0.188136,2.06594 -0.1875,2.979166 l 2.229167,1.8125 -1.6875,2.0625 -2.229167,-1.791666 c -0.420551,0.28546 -0.898019,0.506862 -1.416667,0.645833 -0.523536,0.140281 -1.051065,0.184697 -1.5625,0.145833 l -1.020833,2.6875 -2.5,-0.958333 1.020833,-2.6875 C 13.031485,34.751185 12.44176,33.90165 12.16667,32.874999 c -0.01122,-0.04188 -0.01082,-0.08309 -0.02083,-0.125 L 9.2708395,32.604166 9.4166728,29.958333 12.27084,30.104166 c 0.351572,-0.98668 1.025996,-1.832418 1.9375,-2.395834 l -0.729173,-2.770833 z"
       id="rect3024-2"
       inkscape:connector-curvature="0"
       sodipodi:nodetypes="ccccccccccccccccccccccccscccccccccccc" />
    <path
       transform="matrix(0.24148146,-0.06470476,0.06470476,0.24148146,2.6941725,22.98727)"
       d="m 53,48 a 8,8 0 1 1 -16,0 8,8 0 1 1 16,0 z"
       sodipodi:ry="8"
       sodipodi:rx="8"
       sodipodi:cy="48"
       sodipodi:cx="45"
       id="path3387"
       style="fill:#000000;fill-opacity:1;stroke:none"
       sodipodi:type="arc" />
    <path
       style="fill:#000000;fill-opacity:1;stroke:none"
       d="m 4,17 c -1.1079998,0 -2,0.892 -2,2 l 0,25 c 0,1.108 0.8920002,2 2,2 l 25,0 c 1.108,0 2,-0.892 2,-2 l 0,-25 c 0,-1.108 -0.892,-2 -2,-2 L 4,17 z m 3.5,0.875 c 0.345178,0 0.625,0.279822 0.625,0.625 0,0.345178 -0.279822,0.625 -0.625,0.625 -0.345178,0 -0.625,-0.279822 -0.625,-0.625 0,-0.345178 0.279822,-0.625 0.625,-0.625 z m 6,0 c 0.345178,0 0.625,0.279822 0.625,0.625 0,0.345178 -0.279822,0.625 -0.625,0.625 -0.345178,0 -0.625,-0.279822 -0.625,-0.625 0,-0.345178 0.279822,-0.625 0.625,-0.625 z m 6,0 c 0.345178,0 0.625,0.279822 0.625,0.625 0,0.345178 -0.279822,0.625 -0.625,0.625 -0.345178,0 -0.625,-0.279822 -0.625,-0.625 0,-0.345178 0.279822,-0.625 0.625,-0.625 z m 6.03125,0 c 0.345178,0 0.625,0.279822 0.625,0.625 0,0.345178 -0.279822,0.625 -0.625,0.625 -0.345178,0 -0.625,-0.279822 -0.625,-0.625 0,-0.345178 0.279822,-0.625 0.625,-0.625 z M 5,20 l 23,0 0,3 0.65625,0 0,4 L 28,27 l 0,9 0.65625,0 0,4 L 28,40 28,43 5,43 5,20 z m -1.46875,1.875 c 0.345178,0 0.625,0.279822 0.625,0.625 0,0.345178 -0.279822,0.625 -0.625,0.625 -0.345178,0 -0.625,-0.279822 -0.625,-0.625 0,-0.345178 0.279822,-0.625 0.625,-0.625 z m 25.96875,0 c 0.345178,0 0.625,0.279822 0.625,0.625 0,0.345178 -0.279822,0.625 -0.625,0.625 -0.345178,0 -0.625,-0.279822 -0.625,-0.625 0,-0.345178 0.279822,-0.625 0.625,-0.625 z m -25.96875,6 c 0.345178,0 0.625,0.279822 0.625,0.625 0,0.345178 -0.279822,0.625 -0.625,0.625 -0.345178,0 -0.625,-0.279822 -0.625,-0.625 0,-0.345178 0.279822,-0.625 0.625,-0.625 z m 25.96875,0 c 0.345178,0 0.625,0.279822 0.625,0.625 0,0.345178 -0.279822,0.625 -0.625,0.625 -0.345178,0 -0.625,-0.279822 -0.625,-0.625 0,-0.345178 0.279822,-0.625 0.625,-0.625 z m -25.96875,6 c 0.345178,0 0.625,0.279822 0.625,0.625 0,0.345178 -0.279822,0.625 -0.625,0.625 -0.345178,0 -0.625,-0.279822 -0.625,-0.625 0,-0.345178 0.279822,-0.625 0.625,-0.625 z m 25.96875,0 c 0.345178,0 0.625,0.279822 0.625,0.625 0,0.345178 -0.279822,0.625 -0.625,0.625 -0.345178,0 -0.625,-0.279822 -0.625,-0.625 0,-0.345178 0.279822,-0.625 0.625,-0.625 z m -25.96875,6 c 0.345178,0 0.625,0.279822 0.625,0.625 0,0.345178 -0.279822,0.625 -0.625,0.625 -0.345178,0 -0.625,-0.279822 -0.625,-0.625 0,-0.345178 0.279822,-0.625 0.625,-0.625 z m 25.96875,0 c 0.345178,0 0.625,0.279822 0.625,0.625 0,0.345178 -0.279822,0.625 -0.625,0.625 -0.345178,0 -0.625,-0.279822 -0.625,-0.625 0,-0.345178 0.279822,-0.625 0.625,-0.625 z m -22,4 c 0.345178,0 0.625,0.279822 0.625,0.625 0,0.345178 -0.279822,0.625 -0.625,0.625 -0.345178,0 -0.625,-0.279822 -0.625,-0.625 0,-0.345178 0.279822,-0.625 0.625,-0.625 z m 6,0 c 0.345178,0 0.625,0.279822 0.625,0.625 0,0.345178 -0.279822,0.625 -0.625,0.625 -0.345178,0 -0.625,-0.279822 -0.625,-0.625 0,-0.345178 0.279822,-0.625 0.625,-0.625 z m 6,0 c 0.345178,0 0.625,0.279822 0.625,0.625 0,0.345178 -0.279822,0.625 -0.625,0.625 -0.345178,0 -0.625,-0.279822 -0.625,-0.625 0,-0.345178 0.279822,-0.625 0.625,-0.625 z m 6.03125,0 c 0.345178,0 0.625,0.279822 0.625,0.625 0,0.345178 -0.279822,0.625 -0.625,0.625 -0.345178,0 -0.625,-0.279822 -0.625,-0.625 0,-0.345178 0.279822,-0.625 0.625,-0.625 z"
       id="rect3020"
       inkscape:connector-curvature="0" />
    <rect
       style="fill:#000000;fill-opacity:1;stroke:none"
       id="rect3028"
       width="4"
       height="2"
       x="6"
       y="46" />
    <rect
       y="46"
       x="23"
       height="1.9999809"
       width="4.0000076"
       id="rect3030"
       style="fill:#000000;fill-opacity:1;stroke:none" />
  </g>
</svg>
