<?xml version="1.0" encoding="UTF-8" standalone="no"?>
<!-- Created with Inkscape (http://www.inkscape.org/) -->

<svg
   xmlns:dc="http://purl.org/dc/elements/1.1/"
   xmlns:cc="http://creativecommons.org/ns#"
   xmlns:rdf="http://www.w3.org/1999/02/22-rdf-syntax-ns#"
   xmlns:svg="http://www.w3.org/2000/svg"
   xmlns="http://www.w3.org/2000/svg"
   xmlns:sodipodi="http://sodipodi.sourceforge.net/DTD/sodipodi-0.dtd"
   xmlns:inkscape="http://www.inkscape.org/namespaces/inkscape"
   width="48px"
   height="48px"
   id="svg3344"
   version="1.1"
   inkscape:version="0.48.5 r10040"
   sodipodi:docname="minarca3.svg">
  <defs
     id="defs3346" />
  <sodipodi:namedview
     id="base"
     pagecolor="#ffffff"
     bordercolor="#666666"
     borderopacity="1.0"
     inkscape:pageopacity="0.0"
     inkscape:pageshadow="2"
     inkscape:zoom="11.313709"
     inkscape:cx="24.834255"
     inkscape:cy="19.050466"
     inkscape:current-layer="layer1"
     showgrid="true"
     inkscape:grid-bbox="true"
     inkscape:document-units="px"
     inkscape:window-width="1920"
     inkscape:window-height="1014"
     inkscape:window-x="0"
     inkscape:window-y="27"
     inkscape:window-maximized="1">
    <inkscape:grid
       type="xygrid"
       id="grid3570" />
  </sodipodi:namedview>
  <metadata
     id="metadata3349">
    <rdf:RDF>
      <cc:Work
         rdf:about="">
        <dc:format>image/svg+xml</dc:format>
        <dc:type
           rdf:resource="http://purl.org/dc/dcmitype/StillImage" />
        <dc:title />
      </cc:Work>
    </rdf:RDF>
  </metadata>
  <g
     id="layer1"
     inkscape:label="Layer 1"
     inkscape:groupmode="layer">
    <path
       style="fill:#000000;fill-opacity:1;stroke:none"
       d="M 8 6 L 8 38 L 40 38 L 40 34 L 39 34 L 39 28 L 40 28 L 40 16 L 39 16 L 39 10 L 40 10 L 40 6 L 8 6 z M 23.09375 10.84375 L 24.21875 15 C 25.817294 15.049136 27.337876 15.646468 28.53125 16.65625 L 32.125 14.34375 L 34.3125 17.6875 L 30.6875 20.03125 C 30.70324 20.0849 30.735451 20.133203 30.75 20.1875 C 31.16296 21.728688 31.032204 23.286411 30.46875 24.65625 L 33.8125 27.375 L 31.28125 30.46875 L 27.9375 27.78125 C 27.306674 28.20944 26.590471 28.541543 25.8125 28.75 C 25.027195 28.960422 24.235902 29.027045 23.46875 28.96875 L 21.9375 33 L 18.1875 31.5625 L 19.71875 27.53125 C 18.547222 26.626779 17.662635 25.352476 17.25 23.8125 C 17.233168 23.749681 17.23377 23.687863 17.21875 23.625 L 12.90625 23.40625 L 13.125 19.4375 L 17.40625 19.65625 C 17.933608 18.17623 18.945244 16.907623 20.3125 16.0625 L 19.21875 11.90625 L 23.09375 10.84375 z "
       id="rect3024-2" />
    <path
       transform="matrix(0.36222219,-0.09705714,0.09705714,0.36222219,3.0412588,8.9809067)"
       d="m 53,48 a 8,8 0 1 1 -16,0 8,8 0 1 1 16,0 z"
       sodipodi:ry="8"
       sodipodi:rx="8"
       sodipodi:cy="48"
       sodipodi:cx="45"
       id="path3387"
       style="fill:#000000;fill-opacity:1;stroke:none"
       sodipodi:type="arc" />
    <path
       inkscape:connector-curvature="0"
       style="fill:#000000;fill-opacity:1;stroke:none"
       d="m 5,-2e-7 c -1.6619997,0 -3,1.3380003 -3,3 L 2,41 c 0,1.662 1.3380003,3 3,3 l 38,0 c 1.662,0 3,-1.338 3,-3 L 46,2.9999998 c 0,-1.6619997 -1.338,-3 -3,-3 l -38,0 z m 6.5,1.5 c 0.276142,0 0.5,0.2238576 0.5,0.5 0,0.2761424 -0.223858,0.5 -0.5,0.5 -0.275721,0 -0.499405,-0.2242792 -0.5,-0.5 0,-0.2761424 0.223858,-0.5 0.5,-0.5 z m 8,0 c 0.276142,0 0.5,0.2238576 0.5,0.5 0,0.2761424 -0.223858,0.5 -0.5,0.5 -0.275721,0 -0.499405,-0.2242792 -0.5,-0.5 0,-0.2761424 0.223858,-0.5 0.5,-0.5 z m 9,0 c 0.276142,0 0.5,0.2238576 0.5,0.5 0,0.2761424 -0.223858,0.5 -0.5,0.5 -0.275721,0 -0.499405,-0.2242792 -0.5,-0.5 0,-0.2761424 0.223858,-0.5 0.5,-0.5 z m 8,0 c 0.276142,0 0.5,0.2238576 0.5,0.5 0,0.2761424 -0.223858,0.5 -0.5,0.5 -0.275721,0 -0.499405,-0.2242792 -0.5,-0.5 0,-0.2761424 0.223858,-0.5 0.5,-0.5 z m -30.5,2.5 36,0 0,6 1,0 L 43,16 l -1,0 0,12 1,0 0,6 -1,0 0,6 L 6,40 6,3.9999998 z m -2,5 c 0.2757214,0 0.4994055,0.224279 0.5,0.5 0,0.276142 -0.2238576,0.5 -0.5,0.5 -0.2761424,0 -0.5,-0.223858 -0.5,-0.5 0,-0.276142 0.2238576,-0.5 0.5,-0.5 z m 40,0 c 0.275721,0 0.499405,0.224279 0.5,0.5 0,0.276142 -0.223858,0.5 -0.5,0.5 -0.276142,0 -0.5,-0.223858 -0.5,-0.5 0,-0.276142 0.223858,-0.5 0.5,-0.5 z M 4,17 c 0.2757214,0 0.4994055,0.224279 0.5,0.5 C 4.5,17.776142 4.2761424,18 4,18 3.7238576,18 3.5,17.776142 3.5,17.5 3.5,17.223858 3.7238576,17 4,17 z m 40,0 c 0.275721,0 0.499405,0.224279 0.5,0.5 0,0.276142 -0.223858,0.5 -0.5,0.5 -0.276142,0 -0.5,-0.223858 -0.5,-0.5 0,-0.276142 0.223858,-0.5 0.5,-0.5 z M 4,26 c 0.2757214,0 0.4994055,0.224279 0.5,0.5 C 4.5,26.776142 4.2761424,27 4,27 3.7238576,27 3.5,26.776142 3.5,26.5 3.5,26.223858 3.7238576,26 4,26 z m 40,0 c 0.275721,0 0.499405,0.224279 0.5,0.5 0,0.276142 -0.223858,0.5 -0.5,0.5 -0.276142,0 -0.5,-0.223858 -0.5,-0.5 0,-0.276142 0.223858,-0.5 0.5,-0.5 z M 4,34 c 0.2757214,0 0.4994055,0.224279 0.5,0.5 C 4.5,34.776142 4.2761424,35 4,35 3.7238576,35 3.5,34.776142 3.5,34.5 3.5,34.223858 3.7238576,34 4,34 z m 40,0 c 0.275721,0 0.499405,0.224279 0.5,0.5 0,0.276142 -0.223858,0.5 -0.5,0.5 -0.276142,0 -0.5,-0.223858 -0.5,-0.5 0,-0.276142 0.223858,-0.5 0.5,-0.5 z m -32.5,7.5 c 0.276142,0 0.5,0.223858 0.5,0.5 0,0.276142 -0.223858,0.5 -0.5,0.5 -0.275721,0 -0.499405,-0.224279 -0.5,-0.5 0,-0.276142 0.223858,-0.5 0.5,-0.5 z m 8,0 c 0.276142,0 0.5,0.223858 0.5,0.5 0,0.276142 -0.223858,0.5 -0.5,0.5 -0.275721,0 -0.499405,-0.224279 -0.5,-0.5 0,-0.276142 0.223858,-0.5 0.5,-0.5 z m 9,0 c 0.276142,0 0.5,0.223858 0.5,0.5 0,0.276142 -0.223858,0.5 -0.5,0.5 -0.275721,0 -0.499405,-0.224279 -0.5,-0.5 0,-0.276142 0.223858,-0.5 0.5,-0.5 z m 8,0 c 0.276142,0 0.5,0.223858 0.5,0.5 0,0.276142 -0.223858,0.5 -0.5,0.5 -0.275721,0 -0.499405,-0.224279 -0.5,-0.5 0,-0.276142 0.223858,-0.5 0.5,-0.5 z"
       id="rect3020" />
    <rect
       style="fill:#000000;fill-opacity:1;stroke:none"
       id="rect3028"
       width="5.9999976"
       height="3.0000141"
       x="7.0000029"
       y="44.999985" />
    <rect
       y="44.999985"
       x="35.000004"
       height="2.9999859"
       width="6.0000024"
       id="rect3030"
       style="fill:#000000;fill-opacity:1;stroke:none" />
  </g>
</svg>
