<?xml version="1.0" encoding="UTF-8" standalone="no"?>
<!-- Created with Inkscape (http://www.inkscape.org/) -->

<svg
   xmlns:dc="http://purl.org/dc/elements/1.1/"
   xmlns:cc="http://creativecommons.org/ns#"
   xmlns:rdf="http://www.w3.org/1999/02/22-rdf-syntax-ns#"
   xmlns:svg="http://www.w3.org/2000/svg"
   xmlns="http://www.w3.org/2000/svg"
   xmlns:sodipodi="http://sodipodi.sourceforge.net/DTD/sodipodi-0.dtd"
   xmlns:inkscape="http://www.inkscape.org/namespaces/inkscape"
   width="48px"
   height="48px"
   id="svg3344"
   version="1.1"
   inkscape:version="0.48.5 r10040"
   sodipodi:docname="minarca_48.svg">
  <defs
     id="defs3346" />
  <sodipodi:namedview
     id="base"
     pagecolor="#ffffff"
     bordercolor="#666666"
     borderopacity="1.0"
     inkscape:pageopacity="0.0"
     inkscape:pageshadow="2"
     inkscape:zoom="11.313709"
     inkscape:cx="34.86129"
     inkscape:cy="23.524108"
     inkscape:current-layer="layer1"
     showgrid="true"
     inkscape:grid-bbox="true"
     inkscape:document-units="px"
     inkscape:window-width="1920"
     inkscape:window-height="1014"
     inkscape:window-x="0"
     inkscape:window-y="27"
     inkscape:window-maximized="1">
    <inkscape:grid
       type="xygrid"
       id="grid3570" />
  </sodipodi:namedview>
  <metadata
     id="metadata3349">
    <rdf:RDF>
      <cc:Work
         rdf:about="">
        <dc:format>image/svg+xml</dc:format>
        <dc:type
           rdf:resource="http://purl.org/dc/dcmitype/StillImage" />
        <dc:title />
      </cc:Work>
    </rdf:RDF>
  </metadata>
  <g
     id="layer1"
     inkscape:label="Layer 1"
     inkscape:groupmode="layer">
    <g
       id="g2988">
      <path
         sodipodi:nodetypes="ccccccccccccccccccccccccscccccccccccc"
         inkscape:connector-curvature="0"
         id="rect3024-2"
         d="M 8,6.4999985 8,38 l 32,0 0,-3 -1,0 0,-6 1,0 0,-13.5 -1,0 0,-6 1,0 0,-3 z m 15.09375,4.8437505 1.125,4.156249 c 1.598544,0.04914 3.119127,0.646469 4.3125,1.656251 l 3.593751,-2.312501 2.187499,3.343751 -3.625,2.34375 c 0.01573,0.05365 0.04796,0.101955 0.06251,0.15625 0.41296,1.541187 0.282204,3.098911 -0.28125,4.468749 l 3.34375,2.71875 -2.53125,3.09375 -3.34375,-2.687498 c -0.630826,0.42819 -1.347029,0.760293 -2.125,0.968749 -0.785305,0.210421 -1.576598,0.277046 -2.34375,0.218749 l -1.53125,4.03125 -3.75,-1.437499 1.531249,-4.03125 c -1.171527,-0.904472 -2.056114,-2.178774 -2.468749,-3.718751 -0.01683,-0.06282 -0.01623,-0.124635 -0.03125,-0.1875 l -4.3125,-0.218749 0.218749,-3.96875 4.281251,0.21875 c 0.527358,-1.48002 1.538994,-2.748627 2.90625,-3.593751 l -1.09376,-4.15625 z"
         style="fill:#000000;fill-opacity:1;stroke:none" />
      <path
         sodipodi:type="arc"
         style="fill:#000000;fill-opacity:1;stroke:none"
         id="path3387"
         sodipodi:cx="45"
         sodipodi:cy="48"
         sodipodi:rx="8"
         sodipodi:ry="8"
         d="m 53,48 a 8,8 0 1 1 -16,0 8,8 0 1 1 16,0 z"
         transform="matrix(0.36222219,-0.09705714,0.09705714,0.36222219,3.0412595,9.480905)" />
      <path
         sodipodi:nodetypes="ssssssssssssssssssssssssssssscccccccccccccssssssssssssssssssssssssssssssssssssssssssssssssssssssssssss"
         id="rect3020"
         d="m 5,0.5 c -1.662,0 -3,1.338 -3,3 L 2,41 c 0,1.662 1.338,3 3,3 l 38,0 c 1.662,0 3,-1.338 3,-3 L 46,3.5 c 0,-1.662 -1.338,-3 -3,-3 z m 5.25,1.3125 c 0.517767,0 0.9375,0.419733 0.9375,0.9375 0,0.517767 -0.419733,0.9375 -0.9375,0.9375 -0.517767,0 -0.9375,-0.419733 -0.9375,-0.9375 0,-0.517767 0.419733,-0.9375 0.9375,-0.9375 z m 9,0 c 0.517767,0 0.9375,0.419733 0.9375,0.9375 0,0.517767 -0.419733,0.9375 -0.9375,0.9375 -0.517767,0 -0.9375,-0.419733 -0.9375,-0.9375 0,-0.517767 0.419733,-0.9375 0.9375,-0.9375 z m 9,0 c 0.517767,0 0.9375,0.419733 0.9375,0.9375 0,0.517767 -0.419733,0.9375 -0.9375,0.9375 -0.517767,0 -0.9375,-0.419733 -0.9375,-0.9375 0,-0.517767 0.419733,-0.9375 0.9375,-0.9375 z m 9.046875,0 c 0.517767,0 0.9375,0.419733 0.9375,0.9375 0,0.517767 -0.419733,0.9375 -0.9375,0.9375 -0.517767,0 -0.9375,-0.419733 -0.9375,-0.9375 0,-0.517767 0.419733,-0.9375 0.9375,-0.9375 z M 6.5,5 l 35,0 0,4.5 0.984375,0 0,6 -0.984375,0 0,13.5 0.984375,0 0,6 -0.984375,0 0,4.5 -35,0 z M 4.296875,7.8125 c 0.517767,0 0.9375,0.419733 0.9375,0.9375 0,0.517767 -0.419733,0.9375 -0.9375,0.9375 -0.517767,0 -0.9375,-0.419733 -0.9375,-0.9375 0,-0.517767 0.419733,-0.9375 0.9375,-0.9375 z m 39.453125,0 c 0.517767,0 0.9375,0.419733 0.9375,0.9375 0,0.517767 -0.419733,0.9375 -0.9375,0.9375 -0.517767,0 -0.9375,-0.419733 -0.9375,-0.9375 0,-0.517767 0.419733,-0.9375 0.9375,-0.9375 z m -39.453125,9 c 0.517767,0 0.9375,0.419733 0.9375,0.9375 0,0.517767 -0.419733,0.9375 -0.9375,0.9375 -0.517767,0 -0.9375,-0.419733 -0.9375,-0.9375 0,-0.517767 0.419733,-0.9375 0.9375,-0.9375 z m 39.453125,0 c 0.517767,0 0.9375,0.419733 0.9375,0.9375 0,0.517767 -0.419733,0.9375 -0.9375,0.9375 -0.517767,0 -0.9375,-0.419733 -0.9375,-0.9375 0,-0.517767 0.419733,-0.9375 0.9375,-0.9375 z m -39.453125,9 c 0.517767,0 0.9375,0.419733 0.9375,0.9375 0,0.517767 -0.419733,0.9375 -0.9375,0.9375 -0.517767,0 -0.9375,-0.419733 -0.9375,-0.9375 0,-0.517767 0.419733,-0.9375 0.9375,-0.9375 z m 39.453125,0 c 0.517767,0 0.9375,0.419733 0.9375,0.9375 0,0.517767 -0.419733,0.9375 -0.9375,0.9375 -0.517767,0 -0.9375,-0.419733 -0.9375,-0.9375 0,-0.517767 0.419733,-0.9375 0.9375,-0.9375 z m -39.453125,9 c 0.517767,0 0.9375,0.419733 0.9375,0.9375 0,0.517767 -0.419733,0.9375 -0.9375,0.9375 -0.517767,0 -0.9375,-0.419733 -0.9375,-0.9375 0,-0.517767 0.419733,-0.9375 0.9375,-0.9375 z m 39.453125,0 c 0.517767,0 0.9375,0.419733 0.9375,0.9375 0,0.517767 -0.419733,0.9375 -0.9375,0.9375 -0.517767,0 -0.9375,-0.419733 -0.9375,-0.9375 0,-0.517767 0.419733,-0.9375 0.9375,-0.9375 z m -33.5,6 c 0.517767,0 0.9375,0.419733 0.9375,0.9375 0,0.517767 -0.419733,0.9375 -0.9375,0.9375 -0.517767,0 -0.9375,-0.419733 -0.9375,-0.9375 0,-0.517767 0.419733,-0.9375 0.9375,-0.9375 z m 9,0 c 0.517767,0 0.9375,0.419733 0.9375,0.9375 0,0.517767 -0.419733,0.9375 -0.9375,0.9375 -0.517767,0 -0.9375,-0.419733 -0.9375,-0.9375 0,-0.517767 0.419733,-0.9375 0.9375,-0.9375 z m 9,0 c 0.517767,0 0.9375,0.419733 0.9375,0.9375 0,0.517767 -0.419733,0.9375 -0.9375,0.9375 -0.517767,0 -0.9375,-0.419733 -0.9375,-0.9375 0,-0.517767 0.419733,-0.9375 0.9375,-0.9375 z m 9.046875,0 c 0.517767,0 0.9375,0.419733 0.9375,0.9375 0,0.517767 -0.419733,0.9375 -0.9375,0.9375 -0.517767,0 -0.9375,-0.419733 -0.9375,-0.9375 0,-0.517767 0.419733,-0.9375 0.9375,-0.9375 z"
         style="fill:#000000;fill-opacity:1;stroke:none"
         inkscape:connector-curvature="0" />
      <rect
         y="44"
         x="8"
         height="3"
         width="7"
         id="rect3028"
         style="fill:#000000;fill-opacity:1;stroke:none" />
      <rect
         style="fill:#000000;fill-opacity:1;stroke:none"
         id="rect3030"
         width="7.0000114"
         height="2.9999714"
         x="33"
         y="44" />
    </g>
  </g>
</svg>
