<svg width="66" height="55" viewBox="0 0 66 55" fill="none" xmlns="http://www.w3.org/2000/svg">
<path d="M64.126 39.988L64.7407 40.345L65.3554 39.988L64.7407 39.6309L64.126 39.988Z" fill="#CFD4D6"/>
<path d="M65.0289 38.9139L65.0205 38.9196L65.6352 39.2766L65.7274 39.2204L65.0289 38.9139Z" fill="#CFD4D6"/>
<path d="M63.1542 38.0904L62.4529 37.7839L62.3384 37.8514L62.9531 38.2084L63.1542 38.0904Z" fill="#CFD4D6"/>
<path d="M62.9531 39.6309L62.3384 39.988L62.9531 40.345L63.5678 39.988L62.9531 39.6309Z" fill="#CFD4D6"/>
<path d="M64.4618 38.9197L63.8471 38.5626L63.2324 38.9197L63.8471 39.2767L64.4618 38.9197Z" fill="#CFD4D6"/>
<path d="M63.2324 41.0561L63.4448 41.1798L64.0427 40.8115L63.8471 40.6991L63.2324 41.0561Z" fill="#CFD4D6"/>
<path d="M61.7797 37.8514L61.165 37.4943L60.5503 37.8514L61.165 38.2084L61.7797 37.8514Z" fill="#CFD4D6"/>
<path d="M61.7797 39.988L61.165 39.6309L60.5503 39.988L61.165 40.345L61.7797 39.988Z" fill="#CFD4D6"/>
<path d="M62.6737 38.9197L62.059 38.5626L61.4443 38.9197L62.059 39.2767L62.6737 38.9197Z" fill="#CFD4D6"/>
<path d="M60.5503 42.1244L61.165 42.4814L61.7797 42.1244L61.165 41.7674L60.5503 42.1244Z" fill="#CFD4D6"/>
<path d="M61.4443 41.0561L62.059 41.4132L62.6737 41.0561L62.059 40.6991L61.4443 41.0561Z" fill="#CFD4D6"/>
<path d="M59.9916 37.8514L59.3769 37.4943L58.7622 37.8514L59.3769 38.2084L59.9916 37.8514Z" fill="#CFD4D6"/>
<path d="M60.5778 36.9603L59.8765 36.6538L59.6558 36.7832L60.2705 37.1402L60.5778 36.9603Z" fill="#CFD4D6"/>
<path d="M59.9916 39.988L59.3769 39.6309L58.7622 39.988L59.3769 40.345L59.9916 39.988Z" fill="#CFD4D6"/>
<path d="M60.8852 38.9197L60.2705 38.5626L59.6558 38.9197L60.2705 39.2767L60.8852 38.9197Z" fill="#CFD4D6"/>
<path d="M59.3769 41.7674L58.7622 42.1244L59.3769 42.4814L59.9916 42.1244L59.3769 41.7674Z" fill="#CFD4D6"/>
<path d="M60.8852 41.0561L60.2705 40.6991L59.6558 41.0561L60.2705 41.4132L60.8852 41.0561Z" fill="#CFD4D6"/>
<path d="M59.6558 43.1927L59.9296 43.3502L60.5247 42.9819L60.2705 42.8357L59.6558 43.1927Z" fill="#CFD4D6"/>
<path d="M58.0014 35.8301L57.3 35.5236L56.9731 35.7148L57.5878 36.0718L58.0014 35.8301Z" fill="#CFD4D6"/>
<path d="M58.2025 37.8514L57.5878 37.4943L56.9731 37.8514L57.5878 38.2084L58.2025 37.8514Z" fill="#CFD4D6"/>
<path d="M59.0971 36.7831L58.4824 36.4261L57.8677 36.7831L58.4824 37.1401L59.0971 36.7831Z" fill="#CFD4D6"/>
<path d="M58.2025 39.988L57.5878 39.6309L56.9731 39.988L57.5878 40.345L58.2025 39.988Z" fill="#CFD4D6"/>
<path d="M59.0971 38.9197L58.4824 38.5626L57.8677 38.9197L58.4824 39.2767L59.0971 38.9197Z" fill="#CFD4D6"/>
<path d="M58.2025 42.1244L57.5878 41.7674L56.9731 42.1244L57.5878 42.4814L58.2025 42.1244Z" fill="#CFD4D6"/>
<path d="M59.0971 41.0561L58.4824 40.6991L57.8677 41.0561L58.4824 41.4132L59.0971 41.0561Z" fill="#CFD4D6"/>
<path d="M56.9731 44.261L57.5878 44.6181L58.2025 44.261L57.5878 43.904L56.9731 44.261Z" fill="#CFD4D6"/>
<path d="M57.8677 43.1927L58.4824 43.5498L59.0971 43.1927L58.4824 42.8357L57.8677 43.1927Z" fill="#CFD4D6"/>
<path d="M56.4149 35.7148L55.8002 35.3578L55.1855 35.7148L55.8002 36.0718L56.4149 35.7148Z" fill="#CFD4D6"/>
<path d="M56.4149 37.8514L55.8002 37.4943L55.1855 37.8514L55.8002 38.2084L56.4149 37.8514Z" fill="#CFD4D6"/>
<path d="M57.309 36.7831L56.6943 36.4261L56.0796 36.7831L56.6943 37.1401L57.309 36.7831Z" fill="#CFD4D6"/>
<path d="M56.4149 39.988L55.8002 39.6309L55.1855 39.988L55.8002 40.345L56.4149 39.988Z" fill="#CFD4D6"/>
<path d="M57.309 38.9197L56.6943 38.5626L56.0796 38.9197L56.6943 39.2767L57.309 38.9197Z" fill="#CFD4D6"/>
<path d="M56.4149 42.1244L55.8002 41.7674L55.1855 42.1244L55.8002 42.4814L56.4149 42.1244Z" fill="#CFD4D6"/>
<path d="M57.309 41.0561L56.6943 40.6991L56.0796 41.0561L56.6943 41.4132L57.309 41.0561Z" fill="#CFD4D6"/>
<path d="M55.8002 43.904L55.1855 44.261L55.8002 44.6181L56.4149 44.261L55.8002 43.904Z" fill="#CFD4D6"/>
<path d="M57.309 43.1927L56.6943 42.8357L56.0796 43.1927L56.6943 43.5498L57.309 43.1927Z" fill="#CFD4D6"/>
<path d="M56.0796 45.3293L56.4149 45.5233L57.01 45.155L56.6943 44.9723L56.0796 45.3293Z" fill="#CFD4D6"/>
<path d="M54.6268 35.7148L54.0122 35.3578L53.3975 35.7148L54.0122 36.0718L54.6268 35.7148Z" fill="#CFD4D6"/>
<path d="M55.4254 34.6999L54.7269 34.3935L54.291 34.6465L54.9057 35.0035L55.4254 34.6999Z" fill="#CFD4D6"/>
<path d="M54.6268 37.8514L54.0122 37.4943L53.3975 37.8514L54.0122 38.2084L54.6268 37.8514Z" fill="#CFD4D6"/>
<path d="M55.5204 36.7831L54.9057 36.4261L54.291 36.7831L54.9057 37.1401L55.5204 36.7831Z" fill="#CFD4D6"/>
<path d="M54.6268 39.988L54.0122 39.6309L53.3975 39.988L54.0122 40.345L54.6268 39.988Z" fill="#CFD4D6"/>
<path d="M55.5204 38.9197L54.9057 38.5626L54.291 38.9197L54.9057 39.2767L55.5204 38.9197Z" fill="#CFD4D6"/>
<path d="M54.6268 42.1244L54.0122 41.7674L53.3975 42.1244L54.0122 42.4814L54.6268 42.1244Z" fill="#CFD4D6"/>
<path d="M55.5204 41.0561L54.9057 40.6991L54.291 41.0561L54.9057 41.4132L55.5204 41.0561Z" fill="#CFD4D6"/>
<path d="M54.291 45.3293L54.9057 45.6863L55.5204 45.3293L54.9057 44.9723L54.291 45.3293Z" fill="#CFD4D6"/>
<path d="M54.6268 44.261L54.0122 43.904L53.3975 44.261L54.0122 44.6181L54.6268 44.261Z" fill="#CFD4D6"/>
<path d="M55.5204 43.1927L54.9057 42.8357L54.291 43.1927L54.9057 43.5498L55.5204 43.1927Z" fill="#CFD4D6"/>
<path d="M53.3975 46.3976L54.0122 46.7546L54.6268 46.3976L54.0122 46.0406L53.3975 46.3976Z" fill="#CFD4D6"/>
<path d="M52.8388 33.5783L52.7493 33.5249L52.1514 33.2635L51.6094 33.5783L52.2241 33.9353L52.8388 33.5783Z" fill="#CFD4D6"/>
<path d="M52.8388 35.7148L52.2241 35.3578L51.6094 35.7148L52.2241 36.0718L52.8388 35.7148Z" fill="#CFD4D6"/>
<path d="M53.7328 34.6465L53.1181 34.2895L52.5034 34.6465L53.1181 35.0035L53.7328 34.6465Z" fill="#CFD4D6"/>
<path d="M52.8388 37.8514L52.2241 37.4943L51.6094 37.8514L52.2241 38.2084L52.8388 37.8514Z" fill="#CFD4D6"/>
<path d="M53.7328 36.7831L53.1181 36.4261L52.5034 36.7831L53.1181 37.1401L53.7328 36.7831Z" fill="#CFD4D6"/>
<path d="M52.8388 39.988L52.2241 39.6309L51.6094 39.988L52.2241 40.345L52.8388 39.988Z" fill="#CFD4D6"/>
<path d="M53.7328 38.9197L53.1181 38.5626L52.5034 38.9197L53.1181 39.2767L53.7328 38.9197Z" fill="#CFD4D6"/>
<path d="M52.8388 42.1244L52.2241 41.7674L51.6094 42.1244L52.2241 42.4814L52.8388 42.1244Z" fill="#CFD4D6"/>
<path d="M53.7328 41.0561L53.1181 40.6991L52.5034 41.0561L53.1181 41.4132L53.7328 41.0561Z" fill="#CFD4D6"/>
<path d="M52.8388 44.261L52.2241 43.904L51.6094 44.261L52.2241 44.6181L52.8388 44.261Z" fill="#CFD4D6"/>
<path d="M53.7328 43.1927L53.1181 42.8357L52.5034 43.1927L53.1181 43.5498L53.7328 43.1927Z" fill="#CFD4D6"/>
<path d="M52.5034 47.4658L52.8974 47.6935L53.4953 47.3253L53.1181 47.1088L52.5034 47.4658Z" fill="#CFD4D6"/>
<path d="M52.8388 46.3976L52.2241 46.0406L51.6094 46.3976L52.2241 46.7546L52.8388 46.3976Z" fill="#CFD4D6"/>
<path d="M53.7328 45.3293L53.1181 44.9723L52.5034 45.3293L53.1181 45.6863L53.7328 45.3293Z" fill="#CFD4D6"/>
<path d="M51.0502 33.5782L50.4355 33.2212L49.8208 33.5782L50.4355 33.9352L51.0502 33.5782Z" fill="#CFD4D6"/>
<path d="M51.0502 35.7148L50.4355 35.3578L49.8208 35.7148L50.4355 36.0718L51.0502 35.7148Z" fill="#CFD4D6"/>
<path d="M51.9447 34.6465L51.33 34.2895L50.7153 34.6465L51.33 35.0035L51.9447 34.6465Z" fill="#CFD4D6"/>
<path d="M51.0502 37.8514L50.4355 37.4943L49.8208 37.8514L50.4355 38.2084L51.0502 37.8514Z" fill="#CFD4D6"/>
<path d="M51.9447 36.7831L51.33 36.4261L50.7153 36.7831L51.33 37.1401L51.9447 36.7831Z" fill="#CFD4D6"/>
<path d="M51.0502 39.988L50.4355 39.6309L49.8208 39.988L50.4355 40.345L51.0502 39.988Z" fill="#CFD4D6"/>
<path d="M51.9447 38.9197L51.33 38.5626L50.7153 38.9197L51.33 39.2767L51.9447 38.9197Z" fill="#CFD4D6"/>
<path d="M51.0502 42.1244L50.4355 41.7674L49.8208 42.1244L50.4355 42.4814L51.0502 42.1244Z" fill="#CFD4D6"/>
<path d="M51.9447 41.0561L51.33 40.6991L50.7153 41.0561L51.33 41.4132L51.9447 41.0561Z" fill="#CFD4D6"/>
<path d="M51.0502 44.261L50.4355 43.904L49.8208 44.261L50.4355 44.6181L51.0502 44.261Z" fill="#CFD4D6"/>
<path d="M51.9447 43.1927L51.33 42.8357L50.7153 43.1927L51.33 43.5498L51.9447 43.1927Z" fill="#CFD4D6"/>
<path d="M51.33 47.1088L50.7153 47.4658L51.33 47.8229L51.9447 47.4658L51.33 47.1088Z" fill="#CFD4D6"/>
<path d="M50.4355 46.0406L49.8208 46.3976L50.4355 46.7546L51.0502 46.3976L50.4355 46.0406Z" fill="#CFD4D6"/>
<path d="M51.9447 45.3293L51.33 44.9723L50.7153 45.3293L51.33 45.6863L51.9447 45.3293Z" fill="#CFD4D6"/>
<path d="M49.8208 48.5341L50.4355 48.8911L51.0502 48.5341L50.4355 48.1771L49.8208 48.5341Z" fill="#CFD4D6"/>
<path d="M48.7205 31.7566L48.1338 31.4979L48.6479 31.7987L48.7205 31.7566Z" fill="#CFD4D6"/>
<path d="M49.2621 33.5782L48.6474 33.2212L48.0327 33.5782L48.6474 33.9352L49.2621 33.5782Z" fill="#CFD4D6"/>
<path d="M50.1566 32.51L49.5419 32.153L48.9272 32.51L49.5419 32.8671L50.1566 32.51Z" fill="#CFD4D6"/>
<path d="M49.2621 35.7148L48.6474 35.3578L48.0327 35.7148L48.6474 36.0718L49.2621 35.7148Z" fill="#CFD4D6"/>
<path d="M50.1566 34.6465L49.5419 34.2895L48.9272 34.6465L49.5419 35.0035L50.1566 34.6465Z" fill="#CFD4D6"/>
<path d="M49.2621 37.8514L48.6474 37.4943L48.0327 37.8514L48.6474 38.2084L49.2621 37.8514Z" fill="#CFD4D6"/>
<path d="M50.1566 36.7831L49.5419 36.4261L48.9272 36.7831L49.5419 37.1401L50.1566 36.7831Z" fill="#CFD4D6"/>
<path d="M49.2621 39.988L48.6474 39.6309L48.0327 39.988L48.6474 40.345L49.2621 39.988Z" fill="#CFD4D6"/>
<path d="M50.1566 38.9197L49.5419 38.5626L48.9272 38.9197L49.5419 39.2767L50.1566 38.9197Z" fill="#CFD4D6"/>
<path d="M49.2621 42.1244L48.6474 41.7674L48.0327 42.1244L48.6474 42.4814L49.2621 42.1244Z" fill="#CFD4D6"/>
<path d="M50.1566 41.0561L49.5419 40.6991L48.9272 41.0561L49.5419 41.4132L50.1566 41.0561Z" fill="#CFD4D6"/>
<path d="M48.6474 43.904L48.0327 44.261L48.6474 44.6181L49.2621 44.261L48.6474 43.904Z" fill="#CFD4D6"/>
<path d="M50.1566 43.1927L49.5419 42.8357L48.9272 43.1927L49.5419 43.5498L50.1566 43.1927Z" fill="#CFD4D6"/>
<path d="M49.5419 47.1088L48.9272 47.4658L49.5419 47.8229L50.1566 47.4658L49.5419 47.1088Z" fill="#CFD4D6"/>
<path d="M48.6474 46.0406L48.0327 46.3976L48.6474 46.7546L49.2621 46.3976L48.6474 46.0406Z" fill="#CFD4D6"/>
<path d="M49.5419 44.9723L48.9272 45.3293L49.5419 45.6863L50.1566 45.3293L49.5419 44.9723Z" fill="#CFD4D6"/>
<path d="M48.9272 49.6024L49.3827 49.8666L49.9778 49.4983L49.5419 49.2453L48.9272 49.6024Z" fill="#CFD4D6"/>
<path d="M48.6474 48.1771L48.0327 48.5341L48.6474 48.8911L49.2621 48.5341L48.6474 48.1771Z" fill="#CFD4D6"/>
<path d="M48.0327 50.6707L48.0579 50.6847L48.653 50.3165L48.6474 50.3136L48.0327 50.6707Z" fill="#CFD4D6"/>
<path d="M47.474 31.4417L46.8593 31.0847L46.2446 31.4417L46.8593 31.7987L47.474 31.4417Z" fill="#CFD4D6"/>
<path d="M47.474 33.5782L46.8593 33.2212L46.2446 33.5782L46.8593 33.9352L47.474 33.5782Z" fill="#CFD4D6"/>
<path d="M48.3676 32.51L47.7529 32.153L47.1382 32.51L47.7529 32.8671L48.3676 32.51Z" fill="#CFD4D6"/>
<path d="M47.474 35.7148L46.8593 35.3578L46.2446 35.7148L46.8593 36.0718L47.474 35.7148Z" fill="#CFD4D6"/>
<path d="M48.3676 34.6465L47.7529 34.2895L47.1382 34.6465L47.7529 35.0035L48.3676 34.6465Z" fill="#CFD4D6"/>
<path d="M47.474 37.8514L46.8593 37.4943L46.2446 37.8514L46.8593 38.2084L47.474 37.8514Z" fill="#CFD4D6"/>
<path d="M48.3676 36.7831L47.7529 36.4261L47.1382 36.7831L47.7529 37.1401L48.3676 36.7831Z" fill="#CFD4D6"/>
<path d="M47.474 39.988L46.8593 39.6309L46.2446 39.988L46.8593 40.345L47.474 39.988Z" fill="#CFD4D6"/>
<path d="M48.3676 38.9197L47.7529 38.5626L47.1382 38.9197L47.7529 39.2767L48.3676 38.9197Z" fill="#CFD4D6"/>
<path d="M46.8593 41.7674L46.2446 42.1244L46.8593 42.4814L47.474 42.1244L46.8593 41.7674Z" fill="#CFD4D6"/>
<path d="M48.3676 41.0561L47.7529 40.6991L47.1382 41.0561L47.7529 41.4132L48.3676 41.0561Z" fill="#CFD4D6"/>
<path d="M46.8593 43.904L46.2446 44.261L46.8593 44.6181L47.474 44.261L46.8593 43.904Z" fill="#CFD4D6"/>
<path d="M47.7529 42.8357L47.1382 43.1927L47.7529 43.5498L48.3676 43.1927L47.7529 42.8357Z" fill="#CFD4D6"/>
<path d="M47.7529 47.1088L47.1382 47.4658L47.7529 47.8229L48.3676 47.4658L47.7529 47.1088Z" fill="#CFD4D6"/>
<path d="M46.8593 46.0406L46.2446 46.3976L46.8593 46.7546L47.474 46.3976L46.8593 46.0406Z" fill="#CFD4D6"/>
<path d="M47.7529 44.9723L47.1382 45.3293L47.7529 45.6863L48.3676 45.3293L47.7529 44.9723Z" fill="#CFD4D6"/>
<path d="M46.8593 48.1771L46.2446 48.5341L46.8593 48.8911L47.474 48.5341L46.8593 48.1771Z" fill="#CFD4D6"/>
<path d="M46.8593 50.3136L46.2446 50.6707L46.8593 51.0277L47.474 50.6707L46.8593 50.3136Z" fill="#CFD4D6"/>
<path d="M47.7529 49.2453L47.1382 49.6024L47.7529 49.9594L48.3676 49.6024L47.7529 49.2453Z" fill="#CFD4D6"/>
<path d="M45.6859 31.4417L45.0712 31.0847L44.4565 31.4417L45.0712 31.7987L45.6859 31.4417Z" fill="#CFD4D6"/>
<path d="M46.1436 30.6265L45.4423 30.3172L45.3501 30.3734L45.9648 30.7305L46.1436 30.6265Z" fill="#CFD4D6"/>
<path d="M45.6859 33.5782L45.0712 33.2212L44.4565 33.5782L45.0712 33.9352L45.6859 33.5782Z" fill="#CFD4D6"/>
<path d="M46.5795 32.51L45.9648 32.153L45.3501 32.51L45.9648 32.8671L46.5795 32.51Z" fill="#CFD4D6"/>
<path d="M45.6859 35.7148L45.0712 35.3578L44.4565 35.7148L45.0712 36.0718L45.6859 35.7148Z" fill="#CFD4D6"/>
<path d="M46.5795 34.6465L45.9648 34.2895L45.3501 34.6465L45.9648 35.0035L46.5795 34.6465Z" fill="#CFD4D6"/>
<path d="M45.6859 37.8514L45.0712 37.4943L44.4565 37.8514L45.0712 38.2084L45.6859 37.8514Z" fill="#CFD4D6"/>
<path d="M46.5795 36.7831L45.9648 36.4261L45.3501 36.7831L45.9648 37.1401L46.5795 36.7831Z" fill="#CFD4D6"/>
<path d="M45.0712 39.6309L44.4565 39.988L45.0712 40.345L45.6859 39.988L45.0712 39.6309Z" fill="#CFD4D6"/>
<path d="M46.5795 38.9197L45.9648 38.5626L45.3501 38.9197L45.9648 39.2767L46.5795 38.9197Z" fill="#CFD4D6"/>
<path d="M45.0712 41.7674L44.4565 42.1244L45.0712 42.4814L45.6859 42.1244L45.0712 41.7674Z" fill="#CFD4D6"/>
<path d="M45.9648 40.6991L45.3501 41.0561L45.9648 41.4132L46.5795 41.0561L45.9648 40.6991Z" fill="#CFD4D6"/>
<path d="M45.0712 43.904L44.4565 44.261L45.0712 44.6181L45.6859 44.261L45.0712 43.904Z" fill="#CFD4D6"/>
<path d="M45.9648 42.8357L45.3501 43.1927L45.9648 43.5498L46.5795 43.1927L45.9648 42.8357Z" fill="#CFD4D6"/>
<path d="M45.9648 47.1088L45.3501 47.4658L45.9648 47.8229L46.5795 47.4658L45.9648 47.1088Z" fill="#CFD4D6"/>
<path d="M45.0712 46.0406L44.4565 46.3976L45.0712 46.7546L45.6859 46.3976L45.0712 46.0406Z" fill="#CFD4D6"/>
<path d="M45.9648 44.9723L45.3501 45.3293L45.9648 45.6863L46.5795 45.3293L45.9648 44.9723Z" fill="#CFD4D6"/>
<path d="M45.0712 48.1771L44.4565 48.5341L45.0712 48.8911L45.6859 48.5341L45.0712 48.1771Z" fill="#CFD4D6"/>
<path d="M45.0712 50.3136L44.4565 50.6707L45.0712 51.0277L45.6859 50.6707L45.0712 50.3136Z" fill="#CFD4D6"/>
<path d="M45.9648 49.2453L45.3501 49.6024L45.9648 49.9594L46.5795 49.6024L45.9648 49.2453Z" fill="#CFD4D6"/>
<path d="M45.1383 52.4868L45.0712 52.4502L44.4565 52.8073L44.5432 52.855L45.1383 52.4868Z" fill="#CFD4D6"/>
<path d="M46.4621 51.6687L45.9648 51.3819L45.3501 51.739L45.867 52.037L46.4621 51.6687Z" fill="#CFD4D6"/>
<path d="M43.8974 31.4418L43.6488 31.2956L43.2632 31.7847L43.2827 31.7988L43.8974 31.4418Z" fill="#CFD4D6"/>
<path d="M44.7917 30.3734L44.5067 30.2076L44.1211 30.6967L44.177 30.7304L44.7917 30.3734Z" fill="#CFD4D6"/>
<path d="M43.8978 33.5782L43.2831 33.2212L42.6685 33.5782L43.2831 33.9352L43.8978 33.5782Z" fill="#CFD4D6"/>
<path d="M44.7919 32.51L44.1772 32.153L43.5625 32.51L44.1772 32.8671L44.7919 32.51Z" fill="#CFD4D6"/>
<path d="M43.8978 35.7148L43.2831 35.3578L42.6685 35.7148L43.2831 36.0718L43.8978 35.7148Z" fill="#CFD4D6"/>
<path d="M44.7919 34.6465L44.1772 34.2895L43.5625 34.6465L44.1772 35.0035L44.7919 34.6465Z" fill="#CFD4D6"/>
<path d="M43.2831 37.4943L42.6685 37.8514L43.2831 38.2084L43.8978 37.8514L43.2831 37.4943Z" fill="#CFD4D6"/>
<path d="M44.7919 36.7831L44.1772 36.4261L43.5625 36.7831L44.1772 37.1401L44.7919 36.7831Z" fill="#CFD4D6"/>
<path d="M43.2831 39.6309L42.6685 39.988L43.2831 40.345L43.8978 39.988L43.2831 39.6309Z" fill="#CFD4D6"/>
<path d="M44.1772 38.5626L43.5625 38.9197L44.1772 39.2767L44.7919 38.9197L44.1772 38.5626Z" fill="#CFD4D6"/>
<path d="M43.2831 41.7674L42.6685 42.1244L43.2831 42.4814L43.8978 42.1244L43.2831 41.7674Z" fill="#CFD4D6"/>
<path d="M44.1772 40.6991L43.5625 41.0561L44.1772 41.4132L44.7919 41.0561L44.1772 40.6991Z" fill="#CFD4D6"/>
<path d="M43.2831 43.904L42.6685 44.261L43.2831 44.6181L43.8978 44.261L43.2831 43.904Z" fill="#CFD4D6"/>
<path d="M44.1772 42.8357L43.5625 43.1927L44.1772 43.5498L44.7919 43.1927L44.1772 42.8357Z" fill="#CFD4D6"/>
<path d="M44.1772 47.1088L43.5625 47.4658L44.1772 47.8229L44.7919 47.4658L44.1772 47.1088Z" fill="#CFD4D6"/>
<path d="M43.2831 46.0406L42.6685 46.3976L43.2831 46.7546L43.8978 46.3976L43.2831 46.0406Z" fill="#CFD4D6"/>
<path d="M44.1772 44.9723L43.5625 45.3293L44.1772 45.6863L44.7919 45.3293L44.1772 44.9723Z" fill="#CFD4D6"/>
<path d="M43.8978 48.5341L43.2831 48.1771L42.6685 48.5341L43.2831 48.8911L43.8978 48.5341Z" fill="#CFD4D6"/>
<path d="M43.8978 50.6707L43.2831 50.3136L42.6685 50.6707L43.2831 51.0277L43.8978 50.6707Z" fill="#CFD4D6"/>
<path d="M44.7919 49.6024L44.1772 49.2453L43.5625 49.6024L44.1772 49.9594L44.7919 49.6024Z" fill="#CFD4D6"/>
<path d="M43.8978 52.8073L43.2831 52.4502L42.6685 52.8073L43.2831 53.1643L43.8978 52.8073Z" fill="#CFD4D6"/>
<path d="M44.7919 51.739L44.1772 51.3819L43.5625 51.739L44.1772 52.096L44.7919 51.739Z" fill="#CFD4D6"/>
<path d="M42.1087 33.5783L41.9355 33.4743L41.6421 33.8482L42.1087 33.5783Z" fill="#CFD4D6"/>
<path d="M42.7912 32.3863L42.4336 32.8389L43.0036 32.51L42.7912 32.3863Z" fill="#CFD4D6"/>
<path d="M42.3891 36.4261L41.7744 36.7831L42.3891 37.1401L43.0038 36.7831L42.3891 36.4261Z" fill="#CFD4D6"/>
<path d="M41.4946 35.3578L40.8799 35.7148L41.4946 36.0718L42.1093 35.7148L41.4946 35.3578Z" fill="#CFD4D6"/>
<path d="M43.0038 34.6465L42.3891 34.2895L41.7744 34.6465L42.3891 35.0035L43.0038 34.6465Z" fill="#CFD4D6"/>
<path d="M41.4946 37.4943L40.8799 37.8514L41.4946 38.2084L42.1093 37.8514L41.4946 37.4943Z" fill="#CFD4D6"/>
<path d="M41.2152 36.7831L40.6005 36.4261L39.9858 36.7831L40.6005 37.1401L41.2152 36.7831Z" fill="#CFD4D6"/>
<path d="M41.4946 39.6309L40.8799 39.988L41.4946 40.345L42.1093 39.988L41.4946 39.6309Z" fill="#CFD4D6"/>
<path d="M42.3891 38.5626L41.7744 38.9197L42.3891 39.2767L43.0038 38.9197L42.3891 38.5626Z" fill="#CFD4D6"/>
<path d="M40.6005 39.2767L41.2152 38.9197L40.6005 38.5626L39.9858 38.9197L40.6005 39.2767Z" fill="#CFD4D6"/>
<path d="M41.4946 41.7674L40.8799 42.1244L41.4946 42.4814L42.1093 42.1244L41.4946 41.7674Z" fill="#CFD4D6"/>
<path d="M42.3891 40.6991L41.7744 41.0561L42.3891 41.4132L43.0038 41.0561L42.3891 40.6991Z" fill="#CFD4D6"/>
<path d="M40.6005 41.4132L41.2152 41.0561L40.6005 40.6991L39.9858 41.0561L40.6005 41.4132Z" fill="#CFD4D6"/>
<path d="M41.4946 43.904L40.8799 44.261L41.4946 44.6181L42.1093 44.261L41.4946 43.904Z" fill="#CFD4D6"/>
<path d="M42.3891 42.8357L41.7744 43.1927L42.3891 43.5498L43.0038 43.1927L42.3891 42.8357Z" fill="#CFD4D6"/>
<path d="M40.6005 43.5498L41.2152 43.1927L40.6005 42.8357L39.9858 43.1927L40.6005 43.5498Z" fill="#CFD4D6"/>
<path d="M42.1093 46.3976L41.4946 46.0406L40.8799 46.3976L41.4946 46.7546L42.1093 46.3976Z" fill="#CFD4D6"/>
<path d="M42.3891 44.9723L41.7744 45.3293L42.3891 45.6863L43.0038 45.3293L42.3891 44.9723Z" fill="#CFD4D6"/>
<path d="M42.1093 48.5341L41.4946 48.1771L40.8799 48.5341L41.4946 48.8911L42.1093 48.5341Z" fill="#CFD4D6"/>
<path d="M43.0038 47.4658L42.3891 47.1088L41.7744 47.4658L42.3891 47.8229L43.0038 47.4658Z" fill="#CFD4D6"/>
<path d="M42.1093 50.6707L41.4946 50.3136L40.8799 50.6707L41.4946 51.0277L42.1093 50.6707Z" fill="#CFD4D6"/>
<path d="M43.0038 49.6024L42.3891 49.2453L41.7744 49.6024L42.3891 49.9594L43.0038 49.6024Z" fill="#CFD4D6"/>
<path d="M42.1093 52.8073L41.4946 52.4502L40.8799 52.8073L41.4946 53.1643L42.1093 52.8073Z" fill="#CFD4D6"/>
<path d="M43.0038 51.739L42.3891 51.3819L41.7744 51.739L42.3891 52.096L43.0038 51.739Z" fill="#CFD4D6"/>
<path d="M40.3214 35.7148L40.2236 35.6558L40.0615 35.8666L40.3214 35.7148Z" fill="#CFD4D6"/>
<path d="M41.0782 34.565L40.8491 34.8574L41.2151 34.6466L41.0782 34.565Z" fill="#CFD4D6"/>
<path d="M39.7065 38.2084L40.3212 37.8514L39.7065 37.4943L39.0918 37.8514L39.7065 38.2084Z" fill="#CFD4D6"/>
<path d="M39.7065 40.345L40.3212 39.988L39.7065 39.6309L39.0918 39.988L39.7065 40.345Z" fill="#CFD4D6"/>
<path d="M39.7065 42.4814L40.3212 42.1244L39.7065 41.7674L39.0918 42.1244L39.7065 42.4814Z" fill="#CFD4D6"/>
<path d="M39.7065 44.6181L40.3212 44.261L39.7065 43.904L39.0918 44.261L39.7065 44.6181Z" fill="#CFD4D6"/>
<path d="M39.0918 46.3976L39.7065 46.7546L40.3212 46.3976L39.7065 46.0406L39.0918 46.3976Z" fill="#CFD4D6"/>
<path d="M41.2152 45.3293L40.6005 44.9723L39.9858 45.3293L40.6005 45.6863L41.2152 45.3293Z" fill="#CFD4D6"/>
<path d="M40.3212 48.5341L39.7065 48.1771L39.0918 48.5341L39.7065 48.8911L40.3212 48.5341Z" fill="#CFD4D6"/>
<path d="M41.2152 47.4658L40.6005 47.1088L39.9858 47.4658L40.6005 47.8229L41.2152 47.4658Z" fill="#CFD4D6"/>
<path d="M40.3212 50.6707L39.7065 50.3136L39.0918 50.6707L39.7065 51.0277L40.3212 50.6707Z" fill="#CFD4D6"/>
<path d="M41.2152 49.6024L40.6005 49.2453L39.9858 49.6024L40.6005 49.9594L41.2152 49.6024Z" fill="#CFD4D6"/>
<path d="M39.8127 53.1024L40.3212 52.8073L39.7065 52.4502L39.0918 52.8073L39.5361 53.0631L39.8127 53.1024Z" fill="#CFD4D6"/>
<path d="M41.2152 51.739L40.6005 51.3819L39.9858 51.739L40.6005 52.096L41.2152 51.739Z" fill="#CFD4D6"/>
<path d="M38.4858 37.8795L38.5333 37.8514L38.5166 37.8401C38.5166 37.8401 38.497 37.8655 38.4858 37.8795Z" fill="#CFD4D6"/>
<path d="M39.2705 36.8731L39.427 36.7831L39.3683 36.7494L39.2705 36.8731Z" fill="#CFD4D6"/>
<path d="M37.9179 40.345L38.5326 39.988L37.9179 39.6309L37.3032 39.988L37.9179 40.345Z" fill="#CFD4D6"/>
<path d="M38.8124 39.2767L39.4271 38.9197L38.8124 38.5626L38.1978 38.9197L38.8124 39.2767Z" fill="#CFD4D6"/>
<path d="M37.9179 42.4814L38.5326 42.1244L37.9179 41.7674L37.3032 42.1244L37.9179 42.4814Z" fill="#CFD4D6"/>
<path d="M38.8124 41.4132L39.4271 41.0561L38.8124 40.6991L38.1978 41.0561L38.8124 41.4132Z" fill="#CFD4D6"/>
<path d="M37.3032 44.261L37.9179 44.6181L38.5326 44.261L37.9179 43.904L37.3032 44.261Z" fill="#CFD4D6"/>
<path d="M38.8124 43.5498L39.4271 43.1927L38.8124 42.8357L38.1978 43.1927L38.8124 43.5498Z" fill="#CFD4D6"/>
<path d="M37.9179 46.7546L38.5326 46.3976L37.9179 46.0406L37.3032 46.3976L37.9179 46.7546Z" fill="#CFD4D6"/>
<path d="M38.1978 45.3293L38.8124 45.6863L39.4271 45.3293L38.8124 44.9723L38.1978 45.3293Z" fill="#CFD4D6"/>
<path d="M37.3032 48.5341L37.9179 48.8911L38.5326 48.5341L37.9179 48.1771L37.3032 48.5341Z" fill="#CFD4D6"/>
<path d="M39.4271 47.4658L38.8124 47.1088L38.1978 47.4658L38.8124 47.8229L39.4271 47.4658Z" fill="#CFD4D6"/>
<path d="M38.5326 50.6707L37.9179 50.3136L37.3032 50.6707L37.9179 51.0277L38.5326 50.6707Z" fill="#CFD4D6"/>
<path d="M39.4271 49.6024L38.8124 49.2453L38.1978 49.6024L38.8124 49.9594L39.4271 49.6024Z" fill="#CFD4D6"/>
<path d="M38.5329 52.8073L37.9182 52.4502L37.3789 52.7623L38.368 52.9028L38.5329 52.8073Z" fill="#CFD4D6"/>
<path d="M39.4271 51.739L38.8124 51.3819L38.1978 51.739L38.8124 52.096L39.4271 51.739Z" fill="#CFD4D6"/>
<path d="M35.5151 42.1244L36.1298 42.4814L36.7445 42.1244L36.1298 41.7674L35.5151 42.1244Z" fill="#CFD4D6"/>
<path d="M37.0239 41.4132L37.6386 41.0561L37.0239 40.6991L36.4092 41.0561L37.0239 41.4132Z" fill="#CFD4D6"/>
<path d="M36.1298 44.6181L36.7445 44.261L36.1298 43.904L35.5151 44.261L36.1298 44.6181Z" fill="#CFD4D6"/>
<path d="M36.4092 43.1927L37.0239 43.5498L37.6386 43.1927L37.0239 42.8357L36.4092 43.1927Z" fill="#CFD4D6"/>
<path d="M36.4092 47.4658L37.0239 47.8229L37.6386 47.4658L37.0239 47.1088L36.4092 47.4658Z" fill="#CFD4D6"/>
<path d="M35.5151 46.3976L36.1298 46.7546L36.7445 46.3976L36.1298 46.0406L35.5151 46.3976Z" fill="#CFD4D6"/>
<path d="M37.0239 45.6863L37.6386 45.3293L37.0239 44.9723L36.4092 45.3293L37.0239 45.6863Z" fill="#CFD4D6"/>
<path d="M35.5151 48.5341L36.1298 48.8911L36.7445 48.5341L36.1298 48.1771L35.5151 48.5341Z" fill="#CFD4D6"/>
<path d="M36.7445 50.6707L36.1298 50.3136L35.5151 50.6707L36.1298 51.0277L36.7445 50.6707Z" fill="#CFD4D6"/>
<path d="M37.6386 49.6024L37.0239 49.2453L36.4092 49.6024L37.0239 49.9594L37.6386 49.6024Z" fill="#CFD4D6"/>
<path d="M36.1297 52.4502L35.9453 52.5571L36.4399 52.6273L36.1297 52.4502Z" fill="#CFD4D6"/>
<path d="M37.6386 51.739L37.0239 51.3819L36.4092 51.739L37.0239 52.096L37.6386 51.739Z" fill="#CFD4D6"/>
<path d="M33.7271 44.261L34.3417 44.6181L34.9564 44.261L34.3417 43.904L33.7271 44.261Z" fill="#CFD4D6"/>
<path d="M35.2363 43.5498L35.851 43.1927L35.2363 42.8357L34.6216 43.1927L35.2363 43.5498Z" fill="#CFD4D6"/>
<path d="M34.6216 47.4658L35.2363 47.8229L35.851 47.4658L35.2363 47.1088L34.6216 47.4658Z" fill="#CFD4D6"/>
<path d="M33.7271 46.3976L34.3417 46.7546L34.9564 46.3976L34.3417 46.0406L33.7271 46.3976Z" fill="#CFD4D6"/>
<path d="M34.6216 45.3293L35.2363 45.6863L35.851 45.3293L35.2363 44.9723L34.6216 45.3293Z" fill="#CFD4D6"/>
<path d="M34.3417 48.8911L34.9564 48.5341L34.3417 48.1771L33.7271 48.5341L34.3417 48.8911Z" fill="#CFD4D6"/>
<path d="M34.3417 51.0277L34.9564 50.6707L34.3417 50.3136L33.7271 50.6707L34.3417 51.0277Z" fill="#CFD4D6"/>
<path d="M35.2363 49.9594L35.851 49.6024L35.2363 49.2453L34.6216 49.6024L35.2363 49.9594Z" fill="#CFD4D6"/>
<path d="M35.2363 52.096L35.851 51.739L35.2363 51.3819L34.6216 51.739L35.2363 52.096Z" fill="#CFD4D6"/>
<path d="M32.5537 46.7546L33.1684 46.3976L32.5537 46.0406L31.939 46.3976L32.5537 46.7546Z" fill="#CFD4D6"/>
<path d="M32.833 45.3293L33.4477 45.6863L34.0624 45.3293L33.4477 44.9723L32.833 45.3293Z" fill="#CFD4D6"/>
<path d="M32.5537 48.8911L33.1684 48.5341L32.5537 48.1771L31.939 48.5341L32.5537 48.8911Z" fill="#CFD4D6"/>
<path d="M33.4477 47.8229L34.0624 47.4658L33.4477 47.1088L32.833 47.4658L33.4477 47.8229Z" fill="#CFD4D6"/>
<path d="M32.5537 51.0277L33.1684 50.6707L32.5537 50.3136L31.939 50.6707L32.5537 51.0277Z" fill="#CFD4D6"/>
<path d="M33.4477 49.9594L34.0624 49.6024L33.4477 49.2453L32.833 49.6024L33.4477 49.9594Z" fill="#CFD4D6"/>
<path d="M33.4477 52.096L34.0624 51.739L33.4477 51.3819L32.833 51.739L33.4477 52.096Z" fill="#CFD4D6"/>
<path d="M31.3798 48.5341L30.7651 48.1771L30.36 48.4132L30.2314 48.5819L30.7651 48.8911L31.3798 48.5341Z" fill="#CFD4D6"/>
<path d="M31.0649 47.4771L31.6601 47.8229L32.2748 47.4658L31.6601 47.1088L31.0957 47.4349L31.0649 47.4771Z" fill="#CFD4D6"/>
<path d="M30.7651 51.0277L31.3798 50.6707L30.7651 50.3136L30.1504 50.6707L30.7651 51.0277Z" fill="#CFD4D6"/>
<path d="M31.6596 49.9594L32.2743 49.6024L31.6596 49.2453L31.0449 49.6024L31.6596 49.9594Z" fill="#CFD4D6"/>
<path d="M31.1371 51.7924C31.3942 51.8374 31.6624 51.8852 31.9418 51.9329L32.2743 51.739L31.6596 51.3819L31.0449 51.739L31.1371 51.7924Z" fill="#CFD4D6"/>
<path d="M29.5921 50.6707L28.9774 50.3136L28.9578 50.3249C28.8153 50.5273 28.7036 50.6932 28.6226 50.8197L28.9774 51.0277L29.5921 50.6707Z" fill="#CFD4D6"/>
<path d="M30.4859 49.6024L29.8712 49.2453L29.6393 49.3803C29.5582 49.4899 29.4828 49.5939 29.4102 49.6923L29.8712 49.9594L30.4859 49.6024Z" fill="#CFD4D6"/>
<path d="M29.8717 51.3819L29.6621 51.5028C29.8577 51.545 30.0756 51.59 30.3103 51.6378L29.8689 51.3819H29.8717Z" fill="#CFD4D6"/>
<path d="M4.97899 44.0839C3.85857 43.9574 2.56771 44.1823 1.60935 44.7418C0.82422 45.1972 0.421875 45.7819 0.421875 46.3358C0.421875 46.7968 0.695693 47.2325 1.26009 47.5615L12.4894 54.0836C13.7356 54.8089 15.9066 54.7161 17.3455 53.8811C18.1306 53.4257 18.533 52.841 18.533 52.2844C18.533 51.8261 18.2564 51.3876 17.692 51.0615L6.46264 44.5365C6.04911 44.2976 5.53501 44.1458 4.98178 44.0811L4.97899 44.0839Z" fill="#009FB9"/>
<path d="M20.754 39.5212C21.4917 39.9513 22.0924 39.6028 22.0924 38.7453C22.0924 37.8879 21.4945 36.8449 20.754 36.4176C20.0164 35.9875 19.4157 36.3361 19.4157 37.1935C19.4157 37.6208 19.5638 38.0987 19.8068 38.5204C20.0471 38.9393 20.3852 39.3076 20.7512 39.524L20.754 39.5212ZM16.2612 36.9124C16.9988 37.3397 17.5995 36.9911 17.5995 36.1337C17.5995 35.2762 17.0016 34.2333 16.2612 33.806C15.5235 33.3786 14.9228 33.7244 14.9228 34.5819C14.9228 35.0092 15.0709 35.4871 15.314 35.9088C15.5571 36.3305 15.8896 36.6987 16.2584 36.9124H16.2612ZM11.7655 34.3007C12.5032 34.728 13.1039 34.3823 13.1039 33.522C13.1039 32.6618 12.506 31.6216 11.7655 31.1943C11.0279 30.767 10.4272 31.1128 10.4272 31.9702C10.4272 32.4003 10.5753 32.8754 10.8183 33.2971C11.0586 33.7188 11.3967 34.0871 11.7627 34.3007H11.7655ZM6.00977 13.118L17.172 19.6035V29.8899L27.8705 36.1056V51.216L6.00977 38.5204V13.118Z" fill="white"/>
<path d="M6.00977 13.118L17.172 19.6036V17.4586L27.8705 11.2457L38.5718 17.4586V19.6036L49.734 13.118L27.8705 0.422409L6.00977 13.118Z" fill="white"/>
<path d="M10.8188 33.2943C11.0591 33.716 11.3971 34.0842 11.7632 34.2979C12.5008 34.7252 13.1015 34.3794 13.1015 33.5192C13.1015 32.6589 12.5036 31.6188 11.7632 31.1915C11.0255 30.7642 10.4248 31.1099 10.4248 31.9674C10.4248 32.3975 10.5729 32.8726 10.816 33.2943H10.8188Z" fill="#009FB9"/>
<path d="M15.3144 35.9088C15.5575 36.3305 15.8899 36.6988 16.2588 36.9124C16.9964 37.3397 17.5971 36.9911 17.5971 36.1337C17.5971 35.2763 16.9992 34.2333 16.2588 33.806C15.5211 33.3787 14.9204 33.7245 14.9204 34.5819C14.9204 35.0092 15.0685 35.4871 15.3116 35.9088H15.3144Z" fill="#009FB9"/>
<path d="M17.1724 19.6035V29.8899L27.8708 36.1056V25.8192L17.1724 19.6035Z" fill="#0E2933" fill-opacity="0.2"/>
<path d="M17.1724 17.4586V19.6035L27.8708 25.8192V23.677L17.1724 17.4586Z" fill="#0E2933" fill-opacity="0.2"/>
<path d="M17.1724 17.4586L27.8708 23.677L38.5721 17.4586L27.8708 11.2457L17.1724 17.4586Z" fill="#0E2933" fill-opacity="0.2"/>
<path d="M19.81 38.5205C20.0503 38.9393 20.3883 39.3076 20.7544 39.5241C21.492 39.9542 22.0927 39.6056 22.0927 38.7482C22.0927 37.8907 21.4948 36.8478 20.7544 36.4204C20.0167 35.9903 19.416 36.3389 19.416 37.1964C19.416 37.6237 19.5641 38.1016 19.8072 38.5233L19.81 38.5205Z" fill="#009FB9"/>
<path d="M27.8706 36.1056V51.216L49.7341 38.5204V13.118L38.5719 19.6035V29.8899L27.8706 36.1056Z" fill="#EEF0F1"/>
<path d="M27.8706 25.8192V36.1056L38.5719 29.8899V19.6035L27.8706 25.8192Z" fill="#0E2933" fill-opacity="0.2"/>
<path d="M27.8706 23.677V25.8192L38.5719 19.6035V17.4586L27.8706 23.677Z" fill="#0E2933" fill-opacity="0.2"/>
<path d="M27.8705 24.0987C27.7979 24.0987 27.7252 24.079 27.6609 24.0424L16.9625 17.824C16.834 17.7481 16.7529 17.6103 16.7529 17.4585C16.7529 17.3067 16.834 17.1689 16.9625 17.093L27.6609 10.8774C27.7895 10.8015 27.9515 10.8015 28.0801 10.8774L38.7813 17.093C38.9098 17.1689 38.9909 17.3067 38.9909 17.4585C38.9909 17.6103 38.9098 17.7481 38.7813 17.824L28.0801 24.0424C28.0158 24.079 27.9431 24.0987 27.8705 24.0987ZM18.0103 17.4585L27.8705 23.1878L37.7335 17.4585L27.8705 11.7292L18.0103 17.4585Z" fill="#0E2933"/>
<path d="M27.8708 26.2409C27.6389 26.2409 27.4517 26.0525 27.4517 25.8192V23.677C27.4517 23.4437 27.6389 23.2553 27.8708 23.2553C28.1027 23.2553 28.2899 23.4437 28.2899 23.677V25.8192C28.2899 26.0525 28.1027 26.2409 27.8708 26.2409Z" fill="#0E2933"/>
<path d="M27.8705 36.5272C27.7979 36.5272 27.7252 36.5075 27.6609 36.471L16.9625 30.2553C16.834 30.1794 16.7529 30.0416 16.7529 29.8898V17.4585C16.7529 17.2252 16.9401 17.0368 17.172 17.0368C17.4039 17.0368 17.5911 17.2252 17.5911 17.4585V29.6453L27.8705 35.6164L38.1526 29.6453V17.4585C38.1526 17.2252 38.3398 17.0368 38.5718 17.0368C38.8037 17.0368 38.9909 17.2252 38.9909 17.4585V29.8898C38.9909 30.0416 38.9098 30.1794 38.7813 30.2553L28.0801 36.471C28.0158 36.5075 27.9431 36.5272 27.8705 36.5272Z" fill="#0E2933"/>
<path d="M27.8707 26.2409C27.798 26.2409 27.7254 26.2212 27.6611 26.1847L5.80037 13.4835C5.67185 13.4076 5.59082 13.2698 5.59082 13.118C5.59082 12.9662 5.67185 12.8284 5.80037 12.7525L27.6611 0.0569278C27.7896 -0.0189759 27.9517 -0.0189759 28.0802 0.0569278L49.9438 12.7525C50.0723 12.8284 50.1533 12.9662 50.1533 13.118C50.1533 13.2698 50.0723 13.4076 49.9438 13.4835L28.0802 26.1847C28.016 26.2212 27.9433 26.2409 27.8707 26.2409ZM6.84815 13.118L27.8707 25.3329L48.896 13.118L27.8707 0.908737L6.84815 13.118Z" fill="#0E2933"/>
<path d="M27.8708 51.6378C27.6389 51.6378 27.4517 51.4494 27.4517 51.2161V25.8193C27.4517 25.5859 27.6389 25.3976 27.8708 25.3976C28.1027 25.3976 28.2899 25.5859 28.2899 25.8193V51.2161C28.2899 51.4494 28.1027 51.6378 27.8708 51.6378Z" fill="#0E2933"/>
<path d="M27.8707 51.6377C27.798 51.6377 27.7254 51.618 27.6611 51.5815L5.80037 38.8859C5.67185 38.81 5.59082 38.6722 5.59082 38.5204V13.1179C5.59082 12.8846 5.77802 12.6963 6.00993 12.6963C6.24184 12.6963 6.42904 12.8846 6.42904 13.1179V38.2758L27.8707 50.7297L49.3151 38.2758V13.1179C49.3151 12.8846 49.5023 12.6963 49.7342 12.6963C49.9661 12.6963 50.1533 12.8846 50.1533 13.1179V38.5176C50.1533 38.6694 50.0723 38.8071 49.9438 38.8831L28.0802 51.5787C28.016 51.6152 27.9433 51.6349 27.8707 51.6349V51.6377Z" fill="#0E2933"/>
<path d="M21.3544 40.1256C21.0946 40.1256 20.818 40.0441 20.5441 39.8867C20.1222 39.6421 19.7339 39.2316 19.4461 38.7284C19.1583 38.2252 18.999 37.6798 18.999 37.1907C18.999 36.6256 19.2198 36.1758 19.5997 35.9537C19.9825 35.7316 20.4799 35.7682 20.9632 36.0493C21.8294 36.5525 22.5084 37.7361 22.5084 38.7425C22.5084 39.3076 22.2876 39.7574 21.9076 39.9794C21.74 40.075 21.5528 40.1228 21.3544 40.1228V40.1256ZM20.1586 36.6537C20.1055 36.6537 20.058 36.665 20.0217 36.6875C19.9071 36.7549 19.84 36.9433 19.84 37.1935C19.84 37.5308 19.963 37.9385 20.1753 38.3096C20.3877 38.6806 20.6755 38.9899 20.9688 39.1586C21.184 39.2851 21.3824 39.3216 21.4941 39.2541C21.6087 39.1867 21.6757 38.9983 21.6757 38.7481C21.6757 38.0369 21.1588 37.1401 20.5469 36.7859C20.4016 36.7015 20.2675 36.6565 20.1586 36.6565V36.6537Z" fill="#0E2933"/>
<path d="M16.8594 37.5168C16.6024 37.5168 16.323 37.4352 16.052 37.2778C15.6328 37.036 15.2445 36.6228 14.9539 36.1196C14.6661 35.6164 14.5068 35.071 14.5068 34.5818C14.5068 34.0196 14.7248 33.5698 15.1076 33.3477C15.4903 33.1256 15.9877 33.1593 16.4739 33.4404C17.34 33.9437 18.0218 35.1272 18.0218 36.1336C18.0218 36.6959 17.8038 37.1485 17.421 37.3706C17.2534 37.469 17.0662 37.5168 16.865 37.5168H16.8594ZM15.6636 34.0449C15.6105 34.0449 15.563 34.0561 15.5239 34.0786C15.4093 34.1461 15.3423 34.3344 15.3423 34.5818C15.3423 34.9192 15.4652 35.3268 15.6775 35.6979C15.8955 36.0774 16.1777 36.3782 16.4683 36.5497C16.6834 36.6734 16.8818 36.7099 16.9936 36.6425C17.1081 36.575 17.1752 36.3866 17.1752 36.1364C17.1752 35.4252 16.6583 34.5284 16.0464 34.1714C15.9011 34.087 15.767 34.0449 15.658 34.0449H15.6636Z" fill="#0E2933"/>
<path d="M12.3636 34.9052C12.1065 34.9052 11.8271 34.8264 11.5533 34.6662C11.1314 34.4188 10.7402 34.0084 10.4524 33.5052C10.1646 33.0076 10.0054 32.4622 10.0054 31.9702C10.0054 31.408 10.2233 30.9582 10.6061 30.7361C10.9889 30.514 11.4862 30.5477 11.9724 30.8288C12.8385 31.3321 13.5203 32.5156 13.5203 33.522C13.5203 34.0871 13.3024 34.5369 12.9196 34.759C12.7519 34.8546 12.5647 34.9052 12.3636 34.9052ZM11.1677 31.4333C11.1146 31.4333 11.0671 31.4445 11.028 31.467C10.9134 31.5317 10.8464 31.7228 10.8464 31.9702C10.8464 32.3104 10.9693 32.7152 11.1817 33.0835C11.394 33.4546 11.6818 33.7638 11.9752 33.9353C12.1903 34.0618 12.3887 34.0955 12.5005 34.028C12.615 33.9606 12.6821 33.7722 12.6821 33.522C12.6821 32.8108 12.1652 31.914 11.5533 31.5598C11.408 31.4754 11.2739 31.4333 11.1649 31.4333H11.1677Z" fill="#0E2933"/>
<path d="M13.9704 52.3462C13.7385 52.3462 13.5513 52.1579 13.5513 51.9245V47.8342C13.5513 46.3301 13.8614 44.8683 14.4733 43.488C15.3926 41.4161 16.9069 39.7209 18.86 38.5908L20.5476 37.6096C20.7488 37.4916 21.003 37.5618 21.1204 37.7643C21.2349 37.9667 21.1679 38.2225 20.9667 38.3406L19.2791 39.3217C17.4825 40.3647 16.0855 41.9249 15.2389 43.8337C14.6745 45.1044 14.3895 46.4538 14.3895 47.837V51.9273C14.3895 52.1607 14.2023 52.349 13.9704 52.349V52.3462Z" fill="#0E2933"/>
<path d="M9.47477 49.7317C9.24287 49.7317 9.05566 49.5434 9.05566 49.31V45.2197C9.05566 43.7128 9.36581 42.2482 9.97491 40.8707C10.8942 38.7988 12.4113 37.1064 14.3616 35.9735L16.0492 34.9923C16.2504 34.8771 16.5046 34.9446 16.622 35.147C16.7365 35.3494 16.6695 35.6052 16.4683 35.7233L14.7807 36.7044C12.9841 37.7474 11.5843 39.3076 10.7405 41.2165C10.1789 42.4843 9.89388 43.8309 9.89388 45.2197V49.31C9.89388 49.5434 9.70668 49.7317 9.47477 49.7317Z" fill="#0E2933"/>
<path d="M4.97868 47.12C4.74677 47.12 4.55957 46.9317 4.55957 46.6983V42.608C4.55957 40.9999 4.93118 39.3835 5.63249 37.9357C6.56291 36.0128 8.027 34.4329 9.86549 33.3618L11.5559 32.3807C11.7543 32.2654 12.0113 32.3329 12.1287 32.5353C12.2432 32.7377 12.1762 32.9935 11.975 33.1116L10.2846 34.0927C8.5914 35.0766 7.24466 36.5329 6.38689 38.304C5.74146 39.6393 5.39779 41.1264 5.39779 42.608V46.6983C5.39779 46.9317 5.21059 47.12 4.97868 47.12Z" fill="#0E2933"/>
<path d="M14.6018 54.9972C13.7384 54.9972 12.9086 54.8173 12.2771 54.449L1.04777 47.9269C0.37161 47.5333 0 46.9683 0 46.3357C0 45.6076 0.508519 44.8936 1.39703 44.3763C2.40848 43.7859 3.76639 43.5189 5.02372 43.665C5.64959 43.7353 6.21958 43.9124 6.66943 44.1739L17.8988 50.6988C18.5749 51.0924 18.9493 51.6574 18.9493 52.2871C18.9493 53.0181 18.4408 53.7321 17.5523 54.2494C16.6973 54.7442 15.6244 55 14.6018 55V54.9972ZM4.35315 44.4719C3.44787 44.4719 2.51745 44.6996 1.81614 45.1072C1.20424 45.4642 0.838218 45.9225 0.838218 46.3357C0.838218 46.749 1.18189 47.0301 1.46688 47.196L12.6962 53.7181C13.8027 54.3618 15.8339 54.2691 17.1332 53.5157C17.7451 53.1614 18.1111 52.7004 18.1111 52.2843C18.1111 51.8683 17.7674 51.5928 17.4797 51.4269L6.25032 44.902C5.90106 44.6996 5.44283 44.5618 4.93152 44.5028C4.74152 44.4803 4.54873 44.4719 4.35315 44.4719Z" fill="#0E2933"/>
</svg>
