<svg width="45" height="60" viewBox="0 0 45 60" fill="none" xmlns="http://www.w3.org/2000/svg">
<path d="M44.4117 56.8165C44.4343 56.7244 44.4518 56.6322 44.4618 56.5401L44.209 56.6928L44.4117 56.8165Z" fill="#969A9E" fill-opacity="0.5"/>
<path d="M43.16 55.0286L43.7107 54.6942L43.16 54.3598L42.6094 54.6942L43.16 55.0286Z" fill="#969A9E" fill-opacity="0.5"/>
<path d="M42.6094 56.6954L43.16 57.0298L43.7107 56.6954L43.16 56.361L42.6094 56.6954Z" fill="#969A9E" fill-opacity="0.5"/>
<path d="M43.9613 56.0292L44.4394 55.7396C44.4344 55.7053 44.4269 55.6737 44.4194 55.6395L43.9613 55.3604L43.4106 55.6948L43.9613 56.0292Z" fill="#969A9E" fill-opacity="0.5"/>
<path d="M42.6094 58.6966L42.8497 58.8414C43.0299 58.723 43.1951 58.6018 43.3453 58.4728L43.16 58.3596L42.6094 58.694V58.6966Z" fill="#969A9E" fill-opacity="0.5"/>
<path d="M43.4106 57.696L43.8462 57.9593C43.9688 57.804 44.074 57.646 44.1616 57.4827L43.9613 57.3616L43.4106 57.696Z" fill="#969A9E" fill-opacity="0.5"/>
<path d="M42.0416 52.7325C42.0141 52.7167 41.9891 52.6983 41.9615 52.6825L41.491 52.3981L41.0054 52.693L41.556 53.0274L42.0391 52.7325H42.0416Z" fill="#969A9E" fill-opacity="0.5"/>
<path d="M41.0078 54.6942L41.5585 55.0286L42.1092 54.6942L41.5585 54.3598L41.0078 54.6942Z" fill="#969A9E" fill-opacity="0.5"/>
<path d="M42.3593 54.028L42.9099 53.6936L42.3593 53.3592L41.8086 53.6936L42.3593 54.028Z" fill="#969A9E" fill-opacity="0.5"/>
<path d="M41.0078 56.6954L41.5585 57.0298L42.1092 56.6954L41.5585 56.361L41.0078 56.6954Z" fill="#969A9E" fill-opacity="0.5"/>
<path d="M41.8086 55.6948L42.3593 56.0292L42.9099 55.6948L42.3593 55.3604L41.8086 55.6948Z" fill="#969A9E" fill-opacity="0.5"/>
<path d="M41.0078 58.6966L41.5585 59.031L42.1092 58.6966L41.5585 58.3622L41.0078 58.6966Z" fill="#969A9E" fill-opacity="0.5"/>
<path d="M41.8086 57.696L42.3593 58.0304L42.9099 57.696L42.3593 57.3616L41.8086 57.696Z" fill="#969A9E" fill-opacity="0.5"/>
<path d="M40.2065 53.6936L40.7572 54.028L41.3079 53.6936L40.7572 53.3592L40.2065 53.6936Z" fill="#969A9E" fill-opacity="0.5"/>
<path d="M39.9564 53.0274L40.5071 52.693L39.9564 52.3586L39.4058 52.693L39.9564 53.0274Z" fill="#969A9E" fill-opacity="0.5"/>
<path d="M40.8198 51.9873L40.2691 51.6529L40.2065 51.6924L40.7572 52.0268L40.8198 51.9873Z" fill="#969A9E" fill-opacity="0.5"/>
<path d="M39.4058 54.6942L39.9564 55.0286L40.5071 54.6942L39.9564 54.3598L39.4058 54.6942Z" fill="#969A9E" fill-opacity="0.5"/>
<path d="M39.4058 56.6954L39.9564 57.0298L40.5071 56.6954L39.9564 56.361L39.4058 56.6954Z" fill="#969A9E" fill-opacity="0.5"/>
<path d="M40.2065 55.6948L40.7572 56.0292L41.3079 55.6948L40.7572 55.3604L40.2065 55.6948Z" fill="#969A9E" fill-opacity="0.5"/>
<path d="M39.4058 58.6966L39.9564 59.031L40.5071 58.6966L39.9564 58.3622L39.4058 58.6966Z" fill="#969A9E" fill-opacity="0.5"/>
<path d="M40.2065 57.696L40.7572 58.0304L41.3079 57.696L40.7572 57.3616L40.2065 57.696Z" fill="#969A9E" fill-opacity="0.5"/>
<path d="M40.2065 59.6972L40.3868 59.8078C40.6521 59.7525 40.9099 59.6841 41.1602 59.6077L40.7572 59.3628L40.2065 59.6972Z" fill="#969A9E" fill-opacity="0.5"/>
<path d="M38.7949 50.7576L38.2442 50.4232L37.8037 50.6918L38.3544 51.0262L38.7949 50.7576Z" fill="#969A9E" fill-opacity="0.5"/>
<path d="M38.6045 53.6936L39.1552 54.028L39.7058 53.6936L39.1552 53.3592L38.6045 53.6936Z" fill="#969A9E" fill-opacity="0.5"/>
<path d="M37.8037 52.693L38.3544 53.0274L38.9051 52.693L38.3544 52.3586L37.8037 52.693Z" fill="#969A9E" fill-opacity="0.5"/>
<path d="M39.1552 52.0268L39.7058 51.6924L39.1552 51.358L38.6045 51.6924L39.1552 52.0268Z" fill="#969A9E" fill-opacity="0.5"/>
<path d="M37.8037 54.6942L38.3544 55.0286L38.9051 54.6942L38.3544 54.3598L37.8037 54.6942Z" fill="#969A9E" fill-opacity="0.5"/>
<path d="M37.8037 56.6954L38.3544 57.0298L38.9051 56.6954L38.3544 56.361L37.8037 56.6954Z" fill="#969A9E" fill-opacity="0.5"/>
<path d="M38.6045 55.6948L39.1552 56.0292L39.7058 55.6948L39.1552 55.3604L38.6045 55.6948Z" fill="#969A9E" fill-opacity="0.5"/>
<path d="M37.8037 58.6966L38.3544 59.031L38.9051 58.6966L38.3544 58.3622L37.8037 58.6966Z" fill="#969A9E" fill-opacity="0.5"/>
<path d="M38.6045 57.696L39.1552 58.0304L39.7058 57.696L39.1552 57.3616L38.6045 57.696Z" fill="#969A9E" fill-opacity="0.5"/>
<path d="M38.6045 59.6972L39.0826 59.9869C39.1427 59.9816 39.2002 59.9737 39.2578 59.9684L39.7058 59.6972L39.1552 59.3628L38.6045 59.6972Z" fill="#969A9E" fill-opacity="0.5"/>
<path d="M36.7523 51.0262L37.303 50.6918L36.7523 50.3574L36.2017 50.6918L36.7523 51.0262Z" fill="#969A9E" fill-opacity="0.5"/>
<path d="M37.5686 50.0151L37.0179 49.6806L37.0029 49.6912L37.5536 50.0256L37.5686 50.0151Z" fill="#969A9E" fill-opacity="0.5"/>
<path d="M37.0029 53.6936L37.5536 54.028L38.1043 53.6936L37.5536 53.3592L37.0029 53.6936Z" fill="#969A9E" fill-opacity="0.5"/>
<path d="M36.2017 52.693L36.7523 53.0274L37.303 52.693L36.7523 52.3586L36.2017 52.693Z" fill="#969A9E" fill-opacity="0.5"/>
<path d="M37.0029 51.6924L37.5536 52.0268L38.1043 51.6924L37.5536 51.358L37.0029 51.6924Z" fill="#969A9E" fill-opacity="0.5"/>
<path d="M36.2017 54.6942L36.7523 55.0286L37.303 54.6942L36.7523 54.3598L36.2017 54.6942Z" fill="#969A9E" fill-opacity="0.5"/>
<path d="M36.2017 56.6954L36.7523 57.0298L37.303 56.6954L36.7523 56.361L36.2017 56.6954Z" fill="#969A9E" fill-opacity="0.5"/>
<path d="M37.0029 55.6948L37.5536 56.0292L38.1043 55.6948L37.5536 55.3604L37.0029 55.6948Z" fill="#969A9E" fill-opacity="0.5"/>
<path d="M36.2017 58.6966L36.7523 59.031L37.303 58.6966L36.7523 58.3622L36.2017 58.6966Z" fill="#969A9E" fill-opacity="0.5"/>
<path d="M37.0029 57.696L37.5536 58.0304L38.1043 57.696L37.5536 57.3616L37.0029 57.696Z" fill="#969A9E" fill-opacity="0.5"/>
<path d="M37.0029 59.6972L37.4885 59.9921C37.5286 59.9921 37.5661 59.9974 37.6062 60L38.1043 59.6972L37.5536 59.3628L37.0029 59.6972Z" fill="#969A9E" fill-opacity="0.5"/>
<path d="M35.5433 48.7854L34.9926 48.451L34.5996 48.6906L35.1503 49.025L35.5433 48.7854Z" fill="#969A9E" fill-opacity="0.5"/>
<path d="M34.5996 50.6918L35.1503 51.0262L35.701 50.6918L35.1503 50.3574L34.5996 50.6918Z" fill="#969A9E" fill-opacity="0.5"/>
<path d="M35.9516 50.0256L36.5022 49.6912L35.9516 49.3568L35.4009 49.6912L35.9516 50.0256Z" fill="#969A9E" fill-opacity="0.5"/>
<path d="M35.4009 53.6936L35.9516 54.028L36.5022 53.6936L35.9516 53.3592L35.4009 53.6936Z" fill="#969A9E" fill-opacity="0.5"/>
<path d="M34.5996 52.693L35.1503 53.0274L35.701 52.693L35.1503 52.3586L34.5996 52.693Z" fill="#969A9E" fill-opacity="0.5"/>
<path d="M35.4009 51.6924L35.9516 52.0268L36.5022 51.6924L35.9516 51.358L35.4009 51.6924Z" fill="#969A9E" fill-opacity="0.5"/>
<path d="M34.5996 54.6942L35.1503 55.0286L35.701 54.6942L35.1503 54.3598L34.5996 54.6942Z" fill="#969A9E" fill-opacity="0.5"/>
<path d="M34.5996 56.6954L35.1503 57.0298L35.701 56.6954L35.1503 56.361L34.5996 56.6954Z" fill="#969A9E" fill-opacity="0.5"/>
<path d="M35.4009 55.6948L35.9516 56.0292L36.5022 55.6948L35.9516 55.3604L35.4009 55.6948Z" fill="#969A9E" fill-opacity="0.5"/>
<path d="M34.5996 58.6966L35.1503 59.031L35.701 58.6966L35.1503 58.3622L34.5996 58.6966Z" fill="#969A9E" fill-opacity="0.5"/>
<path d="M35.4009 57.696L35.9516 58.0304L36.5022 57.696L35.9516 57.3616L35.4009 57.696Z" fill="#969A9E" fill-opacity="0.5"/>
<path d="M35.4185 59.6867C35.6913 59.7499 35.9666 59.8078 36.2445 59.8552L36.5023 59.6972L35.9516 59.3628L35.4185 59.6867Z" fill="#969A9E" fill-opacity="0.5"/>
<path d="M33.5487 49.025L34.0994 48.6906L33.5487 48.3562L32.998 48.6906L33.5487 49.025Z" fill="#969A9E" fill-opacity="0.5"/>
<path d="M32.998 50.6918L33.5487 51.0262L34.0994 50.6918L33.5487 50.3574L32.998 50.6918Z" fill="#969A9E" fill-opacity="0.5"/>
<path d="M34.3495 50.0256L34.9002 49.6912L34.3495 49.3568L33.7988 49.6912L34.3495 50.0256Z" fill="#969A9E" fill-opacity="0.5"/>
<path d="M33.7988 53.6936L34.3495 54.028L34.9002 53.6936L34.3495 53.3592L33.7988 53.6936Z" fill="#969A9E" fill-opacity="0.5"/>
<path d="M32.998 52.693L33.5487 53.0274L34.0994 52.693L33.5487 52.3586L32.998 52.693Z" fill="#969A9E" fill-opacity="0.5"/>
<path d="M33.7988 51.6924L34.3495 52.0268L34.9002 51.6924L34.3495 51.358L33.7988 51.6924Z" fill="#969A9E" fill-opacity="0.5"/>
<path d="M32.998 54.6942L33.5487 55.0286L34.0994 54.6942L33.5487 54.3598L32.998 54.6942Z" fill="#969A9E" fill-opacity="0.5"/>
<path d="M32.998 56.6954L33.5487 57.0298L34.0994 56.6954L33.5487 56.361L32.998 56.6954Z" fill="#969A9E" fill-opacity="0.5"/>
<path d="M33.7988 55.6948L34.3495 56.0292L34.9002 55.6948L34.3495 55.3604L33.7988 55.6948Z" fill="#969A9E" fill-opacity="0.5"/>
<path d="M32.998 58.6966L33.5487 59.031L34.0994 58.6966L33.5487 58.3622L32.998 58.6966Z" fill="#969A9E" fill-opacity="0.5"/>
<path d="M33.7988 57.696L34.3495 58.0304L34.9002 57.696L34.3495 57.3616L33.7988 57.696Z" fill="#969A9E" fill-opacity="0.5"/>
<path d="M34.3496 59.3628L34.3296 59.376C34.3571 59.3865 34.3872 59.3944 34.4147 59.4023L34.3496 59.3628Z" fill="#969A9E" fill-opacity="0.5"/>
<path d="M32.2946 46.8105L31.7439 46.4761L31.396 46.6894L31.9467 47.0238L32.2946 46.8105Z" fill="#969A9E" fill-opacity="0.5"/>
<path d="M32.1968 49.6912L32.7475 50.0256L33.2981 49.6912L32.7475 49.3568L32.1968 49.6912Z" fill="#969A9E" fill-opacity="0.5"/>
<path d="M31.396 48.6906L31.9467 49.025L32.4973 48.6906L31.9467 48.3562L31.396 48.6906Z" fill="#969A9E" fill-opacity="0.5"/>
<path d="M32.7475 48.0244L33.2981 47.69L32.7475 47.3556L32.1968 47.69L32.7475 48.0244Z" fill="#969A9E" fill-opacity="0.5"/>
<path d="M31.396 50.6918L31.9467 51.0262L32.4973 50.6918L31.9467 50.3574L31.396 50.6918Z" fill="#969A9E" fill-opacity="0.5"/>
<path d="M32.1968 53.6936L32.7475 54.028L33.2981 53.6936L32.7475 53.3592L32.1968 53.6936Z" fill="#969A9E" fill-opacity="0.5"/>
<path d="M31.396 52.693L31.9467 53.0274L32.4973 52.693L31.9467 52.3586L31.396 52.693Z" fill="#969A9E" fill-opacity="0.5"/>
<path d="M32.1968 51.6924L32.7475 52.0268L33.2981 51.6924L32.7475 51.358L32.1968 51.6924Z" fill="#969A9E" fill-opacity="0.5"/>
<path d="M31.396 54.6942L31.9467 55.0286L32.4973 54.6942L31.9467 54.3598L31.396 54.6942Z" fill="#969A9E" fill-opacity="0.5"/>
<path d="M31.396 56.6954L31.9467 57.0298L32.4973 56.6954L31.9467 56.361L31.396 56.6954Z" fill="#969A9E" fill-opacity="0.5"/>
<path d="M30.8477 57.5407L31.3983 57.8751L31.6962 57.696L31.1455 57.3616L30.8477 57.5407Z" fill="#969A9E" fill-opacity="0.5"/>
<path d="M32.1968 55.6948L32.7475 56.0292L33.2981 55.6948L32.7475 55.3604L32.1968 55.6948Z" fill="#969A9E" fill-opacity="0.5"/>
<path d="M32.1968 57.696L32.7475 58.0304L33.2981 57.696L32.7475 57.3616L32.1968 57.696Z" fill="#969A9E" fill-opacity="0.5"/>
<path d="M30.3446 47.0238L30.8953 46.6894L30.3446 46.3549L29.7939 46.6894L30.3446 47.0238Z" fill="#969A9E" fill-opacity="0.5"/>
<path d="M30.5947 49.6912L31.1454 50.0256L31.6961 49.6912L31.1454 49.3568L30.5947 49.6912Z" fill="#969A9E" fill-opacity="0.5"/>
<path d="M29.7939 48.6906L30.3446 49.025L30.8953 48.6906L30.3446 48.3562L29.7939 48.6906Z" fill="#969A9E" fill-opacity="0.5"/>
<path d="M31.1454 48.0244L31.6961 47.69L31.1454 47.3556L30.5947 47.69L31.1454 48.0244Z" fill="#969A9E" fill-opacity="0.5"/>
<path d="M29.7939 50.6918L30.3446 51.0262L30.8953 50.6918L30.3446 50.3574L29.7939 50.6918Z" fill="#969A9E" fill-opacity="0.5"/>
<path d="M30.5947 53.6936L31.1454 54.028L31.6961 53.6936L31.1454 53.3592L30.5947 53.6936Z" fill="#969A9E" fill-opacity="0.5"/>
<path d="M29.7939 52.693L30.3446 53.0274L30.8953 52.693L30.3446 52.3586L29.7939 52.693Z" fill="#969A9E" fill-opacity="0.5"/>
<path d="M30.5947 51.6924L31.1454 52.0268L31.6961 51.6924L31.1454 51.358L30.5947 51.6924Z" fill="#969A9E" fill-opacity="0.5"/>
<path d="M29.7939 54.6942L30.3446 55.0286L30.8953 54.6942L30.3446 54.3598L29.7939 54.6942Z" fill="#969A9E" fill-opacity="0.5"/>
<path d="M29.7939 56.6954L30.3446 57.0298L30.8953 56.6954L30.3446 56.361L29.7939 56.6954Z" fill="#969A9E" fill-opacity="0.5"/>
<path d="M30.5947 55.6948L31.1454 56.0292L31.6961 55.6948L31.1454 55.3604L30.5947 55.6948Z" fill="#969A9E" fill-opacity="0.5"/>
<path d="M29.0454 44.8382L28.4948 44.5038L28.1919 44.6882L28.7426 45.0226L29.0454 44.8382Z" fill="#969A9E" fill-opacity="0.5"/>
<path d="M28.1919 46.6894L28.7426 47.0238L29.2932 46.6894L28.7426 46.3549L28.1919 46.6894Z" fill="#969A9E" fill-opacity="0.5"/>
<path d="M29.5438 46.0232L30.0945 45.6888L29.5438 45.3543L28.9932 45.6888L29.5438 46.0232Z" fill="#969A9E" fill-opacity="0.5"/>
<path d="M28.9932 49.6912L29.5438 50.0256L30.0945 49.6912L29.5438 49.3568L28.9932 49.6912Z" fill="#969A9E" fill-opacity="0.5"/>
<path d="M28.1919 48.6906L28.7426 49.025L29.2932 48.6906L28.7426 48.3562L28.1919 48.6906Z" fill="#969A9E" fill-opacity="0.5"/>
<path d="M28.9932 47.69L29.5438 48.0244L30.0945 47.69L29.5438 47.3556L28.9932 47.69Z" fill="#969A9E" fill-opacity="0.5"/>
<path d="M28.1919 50.6918L28.7426 51.0262L29.2932 50.6918L28.7426 50.3574L28.1919 50.6918Z" fill="#969A9E" fill-opacity="0.5"/>
<path d="M28.9932 53.6936L29.5438 54.028L30.0945 53.6936L29.5438 53.3592L28.9932 53.6936Z" fill="#969A9E" fill-opacity="0.5"/>
<path d="M28.1919 52.693L28.7426 53.0274L29.2932 52.693L28.7426 52.3586L28.1919 52.693Z" fill="#969A9E" fill-opacity="0.5"/>
<path d="M28.9932 51.6924L29.5438 52.0268L30.0945 51.6924L29.5438 51.358L28.9932 51.6924Z" fill="#969A9E" fill-opacity="0.5"/>
<path d="M28.1919 54.6942L28.7426 55.0286L29.2932 54.6942L28.7426 54.3598L28.1919 54.6942Z" fill="#969A9E" fill-opacity="0.5"/>
<path d="M28.9932 55.6948L29.5438 56.0292L30.0945 55.6948L29.5438 55.3604L28.9932 55.6948Z" fill="#969A9E" fill-opacity="0.5"/>
<path d="M27.1405 45.0226L27.6912 44.6882L27.1405 44.3537L26.5898 44.6882L27.1405 45.0226Z" fill="#969A9E" fill-opacity="0.5"/>
<path d="M26.5898 46.6894L27.1405 47.0238L27.6912 46.6894L27.1405 46.3549L26.5898 46.6894Z" fill="#969A9E" fill-opacity="0.5"/>
<path d="M27.9418 46.0232L28.4925 45.6888L27.9418 45.3543L27.3911 45.6888L27.9418 46.0232Z" fill="#969A9E" fill-opacity="0.5"/>
<path d="M27.3911 49.6912L27.9418 50.0256L28.4925 49.6912L27.9418 49.3568L27.3911 49.6912Z" fill="#969A9E" fill-opacity="0.5"/>
<path d="M26.5898 48.6906L27.1405 49.025L27.6912 48.6906L27.1405 48.3562L26.5898 48.6906Z" fill="#969A9E" fill-opacity="0.5"/>
<path d="M27.3911 47.69L27.9418 48.0244L28.4925 47.69L27.9418 47.3556L27.3911 47.69Z" fill="#969A9E" fill-opacity="0.5"/>
<path d="M26.5898 50.6918L27.1405 51.0262L27.6912 50.6918L27.1405 50.3574L26.5898 50.6918Z" fill="#969A9E" fill-opacity="0.5"/>
<path d="M27.3911 53.6936L27.9418 54.028L28.4925 53.6936L27.9418 53.3592L27.3911 53.6936Z" fill="#969A9E" fill-opacity="0.5"/>
<path d="M26.5898 52.693L27.1405 53.0274L27.6912 52.693L27.1405 52.3586L26.5898 52.693Z" fill="#969A9E" fill-opacity="0.5"/>
<path d="M27.3911 51.6924L27.9418 52.0268L28.4925 51.6924L27.9418 51.358L27.3911 51.6924Z" fill="#969A9E" fill-opacity="0.5"/>
<path d="M26.5898 54.6942L27.1405 55.0286L27.6912 54.6942L27.1405 54.3598L26.5898 54.6942Z" fill="#969A9E" fill-opacity="0.5"/>
<path d="M27.5991 55.5684L28.1498 55.9028L28.4927 55.6948L27.942 55.3604L27.5991 55.5684Z" fill="#969A9E" fill-opacity="0.5"/>
<path d="M25.7968 42.8634L25.2461 42.529L24.9883 42.6869L25.539 43.0214L25.7968 42.8634Z" fill="#969A9E" fill-opacity="0.5"/>
<path d="M25.7891 45.6888L26.3397 46.0232L26.8904 45.6888L26.3397 45.3543L25.7891 45.6888Z" fill="#969A9E" fill-opacity="0.5"/>
<path d="M24.9883 44.6882L25.539 45.0226L26.0896 44.6882L25.539 44.3537L24.9883 44.6882Z" fill="#969A9E" fill-opacity="0.5"/>
<path d="M26.3397 44.022L26.8904 43.6875L26.3397 43.3531L25.7891 43.6875L26.3397 44.022Z" fill="#969A9E" fill-opacity="0.5"/>
<path d="M24.9883 46.6894L25.539 47.0238L26.0896 46.6894L25.539 46.3549L24.9883 46.6894Z" fill="#969A9E" fill-opacity="0.5"/>
<path d="M25.7891 49.6912L26.3397 50.0256L26.8904 49.6912L26.3397 49.3568L25.7891 49.6912Z" fill="#969A9E" fill-opacity="0.5"/>
<path d="M24.9883 48.6906L25.539 49.025L26.0896 48.6906L25.539 48.3562L24.9883 48.6906Z" fill="#969A9E" fill-opacity="0.5"/>
<path d="M25.7891 47.69L26.3397 48.0244L26.8904 47.69L26.3397 47.3556L25.7891 47.69Z" fill="#969A9E" fill-opacity="0.5"/>
<path d="M24.9883 50.6918L25.539 51.0262L26.0896 50.6918L25.539 50.3574L24.9883 50.6918Z" fill="#969A9E" fill-opacity="0.5"/>
<path d="M25.7891 53.6936L26.3397 54.028L26.8904 53.6936L26.3397 53.3592L25.7891 53.6936Z" fill="#969A9E" fill-opacity="0.5"/>
<path d="M24.9883 52.693L25.539 53.0274L26.0896 52.693L25.539 52.3586L24.9883 52.693Z" fill="#969A9E" fill-opacity="0.5"/>
<path d="M25.7891 51.6924L26.3397 52.0268L26.8904 51.6924L26.3397 51.358L25.7891 51.6924Z" fill="#969A9E" fill-opacity="0.5"/>
<path d="M23.9369 43.0214L24.4876 42.6869L23.9369 42.3525L23.3862 42.6869L23.9369 43.0214Z" fill="#969A9E" fill-opacity="0.5"/>
<path d="M24.187 45.6888L24.7377 46.0232L25.2884 45.6888L24.7377 45.3543L24.187 45.6888Z" fill="#969A9E" fill-opacity="0.5"/>
<path d="M23.3862 44.6882L23.9369 45.0226L24.4876 44.6882L23.9369 44.3537L23.3862 44.6882Z" fill="#969A9E" fill-opacity="0.5"/>
<path d="M24.7377 44.022L25.2884 43.6875L24.7377 43.3531L24.187 43.6875L24.7377 44.022Z" fill="#969A9E" fill-opacity="0.5"/>
<path d="M23.3862 46.6894L23.9369 47.0238L24.4876 46.6894L23.9369 46.3549L23.3862 46.6894Z" fill="#969A9E" fill-opacity="0.5"/>
<path d="M24.187 49.6912L24.7377 50.0256L25.2884 49.6912L24.7377 49.3568L24.187 49.6912Z" fill="#969A9E" fill-opacity="0.5"/>
<path d="M23.3862 48.6906L23.9369 49.025L24.4876 48.6906L23.9369 48.3562L23.3862 48.6906Z" fill="#969A9E" fill-opacity="0.5"/>
<path d="M24.187 47.69L24.7377 48.0244L25.2884 47.69L24.7377 47.3556L24.187 47.69Z" fill="#969A9E" fill-opacity="0.5"/>
<path d="M23.3862 50.6918L23.9369 51.0262L24.4876 50.6918L23.9369 50.3574L23.3862 50.6918Z" fill="#969A9E" fill-opacity="0.5"/>
<path d="M24.3496 53.5935L24.9003 53.9279L25.2883 53.6936L24.7376 53.3592L24.3496 53.5935Z" fill="#969A9E" fill-opacity="0.5"/>
<path d="M23.3862 52.693L23.9369 53.0274L24.4876 52.693L23.9369 52.3586L23.3862 52.693Z" fill="#969A9E" fill-opacity="0.5"/>
<path d="M24.187 51.6924L24.7377 52.0268L25.2884 51.6924L24.7377 51.358L24.187 51.6924Z" fill="#969A9E" fill-opacity="0.5"/>
<path d="M22.3349 43.0214L22.8855 42.6869L22.3349 42.3525L21.7842 42.6869L22.3349 43.0214Z" fill="#969A9E" fill-opacity="0.5"/>
<path d="M23.6864 41.6863L23.2533 41.423C23.2083 41.402 23.1632 41.3809 23.1157 41.3625L22.5825 41.6863L23.1332 42.0207L23.6839 41.6863H23.6864Z" fill="#969A9E" fill-opacity="0.5"/>
<path d="M22.585 45.6888L23.1356 46.0232L23.6863 45.6888L23.1356 45.3543L22.585 45.6888Z" fill="#969A9E" fill-opacity="0.5"/>
<path d="M21.7842 44.6882L22.3349 45.0226L22.8855 44.6882L22.3349 44.3537L21.7842 44.6882Z" fill="#969A9E" fill-opacity="0.5"/>
<path d="M22.585 43.6875L23.1356 44.022L23.6863 43.6875L23.1356 43.3531L22.585 43.6875Z" fill="#969A9E" fill-opacity="0.5"/>
<path d="M21.7842 46.6894L22.3349 47.0238L22.8855 46.6894L22.3349 46.3549L21.7842 46.6894Z" fill="#969A9E" fill-opacity="0.5"/>
<path d="M22.585 49.6912L23.1356 50.0256L23.6863 49.6912L23.1356 49.3568L22.585 49.6912Z" fill="#969A9E" fill-opacity="0.5"/>
<path d="M21.7842 48.6906L22.3349 49.025L22.8855 48.6906L22.3349 48.3562L21.7842 48.6906Z" fill="#969A9E" fill-opacity="0.5"/>
<path d="M22.585 47.69L23.1356 48.0244L23.6863 47.69L23.1356 47.3556L22.585 47.69Z" fill="#969A9E" fill-opacity="0.5"/>
<path d="M21.7842 50.6918L22.3349 51.0262L22.8855 50.6918L22.3349 50.3574L21.7842 50.6918Z" fill="#969A9E" fill-opacity="0.5"/>
<path d="M22.3223 52.3638L22.8754 52.6983L22.8855 52.693L22.3348 52.3586L22.3223 52.3638Z" fill="#969A9E" fill-opacity="0.5"/>
<path d="M22.585 51.6924L23.1356 52.0268L23.6863 51.6924L23.1356 51.358L22.585 51.6924Z" fill="#969A9E" fill-opacity="0.5"/>
<path d="M21.1734 40.7516C20.8931 40.691 20.6102 40.641 20.3249 40.5988L20.1797 40.6857L20.7304 41.0202L21.1734 40.7516Z" fill="#969A9E" fill-opacity="0.5"/>
<path d="M20.1821 42.6869L20.7328 43.0214L21.2835 42.6869L20.7328 42.3525L20.1821 42.6869Z" fill="#969A9E" fill-opacity="0.5"/>
<path d="M21.5341 42.0208L22.0847 41.6863L21.5341 41.3519L20.9834 41.6863L21.5341 42.0208Z" fill="#969A9E" fill-opacity="0.5"/>
<path d="M21.1836 45.565L20.9834 45.6888L21.5341 46.0232L22.0847 45.6888L21.5341 45.3543L21.1836 45.565Z" fill="#969A9E" fill-opacity="0.5"/>
<path d="M20.1821 44.6882L20.7328 45.0226L21.2835 44.6882L20.7328 44.3537L20.1821 44.6882Z" fill="#969A9E" fill-opacity="0.5"/>
<path d="M20.9834 43.6875L21.5341 44.022L22.0847 43.6875L21.5341 43.3531L20.9834 43.6875Z" fill="#969A9E" fill-opacity="0.5"/>
<path d="M20.1821 46.6894L20.7328 47.0238L21.2835 46.6894L20.7328 46.3549L20.1821 46.6894Z" fill="#969A9E" fill-opacity="0.5"/>
<path d="M21.1836 49.5674L20.9834 49.6912L21.5341 50.0256L22.0847 49.6912L21.5341 49.3568L21.1836 49.5674Z" fill="#969A9E" fill-opacity="0.5"/>
<path d="M20.1821 48.6906L20.7328 49.025L21.2835 48.6906L20.7328 48.3562L20.1821 48.6906Z" fill="#969A9E" fill-opacity="0.5"/>
<path d="M20.9834 47.69L21.5341 48.0244L22.0847 47.69L21.5341 47.3556L20.9834 47.69Z" fill="#969A9E" fill-opacity="0.5"/>
<path d="M20.1821 50.6918L20.7328 51.0262L21.2835 50.6918L20.7328 50.3574L20.1821 50.6918Z" fill="#969A9E" fill-opacity="0.5"/>
<path d="M21.0981 51.6213L21.6488 51.9557L22.0844 51.6924L21.5337 51.358L21.0981 51.6213Z" fill="#969A9E" fill-opacity="0.5"/>
<path d="M19.6814 40.6857L19.371 40.4961C19.2233 40.4856 19.0781 40.4777 18.9329 40.4725L18.5825 40.6857L19.1332 41.0202L19.6839 40.6857H19.6814Z" fill="#969A9E" fill-opacity="0.5"/>
<path d="M19.3813 43.6875L19.932 44.022L20.4827 43.6875L19.932 43.3531L19.3813 43.6875Z" fill="#969A9E" fill-opacity="0.5"/>
<path d="M18.5801 42.6869L19.1308 43.0214L19.6814 42.6869L19.1308 42.3525L18.5801 42.6869Z" fill="#969A9E" fill-opacity="0.5"/>
<path d="M19.932 42.0208L20.4827 41.6863L19.932 41.3519L19.3813 41.6863L19.932 42.0208Z" fill="#969A9E" fill-opacity="0.5"/>
<path d="M19.3813 45.6888L19.932 46.0232L20.4827 45.6888L19.932 45.3543L19.3813 45.6888Z" fill="#969A9E" fill-opacity="0.5"/>
<path d="M18.5801 44.6882L19.1308 45.0226L19.6814 44.6882L19.1308 44.3537L18.5801 44.6882Z" fill="#969A9E" fill-opacity="0.5"/>
<path d="M18.5801 46.6894L19.1308 47.0238L19.6814 46.6894L19.1308 46.3549L18.5801 46.6894Z" fill="#969A9E" fill-opacity="0.5"/>
<path d="M19.3813 49.6912L19.932 50.0256L20.4827 49.6912L19.932 49.3568L19.3813 49.6912Z" fill="#969A9E" fill-opacity="0.5"/>
<path d="M18.5801 48.6906L19.1308 49.025L19.6814 48.6906L19.1308 48.3562L18.5801 48.6906Z" fill="#969A9E" fill-opacity="0.5"/>
<path d="M19.3813 47.69L19.932 48.0244L20.4827 47.69L19.932 47.3556L19.3813 47.69Z" fill="#969A9E" fill-opacity="0.5"/>
<path d="M19.6815 50.6918L19.1308 50.3574L19.0732 50.3916L19.6239 50.726L19.6815 50.6918Z" fill="#969A9E" fill-opacity="0.5"/>
<path d="M18.0794 40.6857L17.759 40.4909C17.5738 40.5041 17.3911 40.5225 17.2084 40.5436L16.9756 40.6831L17.5263 41.0175L18.0769 40.6831L18.0794 40.6857Z" fill="#969A9E" fill-opacity="0.5"/>
<path d="M16.9785 42.6869L17.5292 43.0214L18.0799 42.6869L17.5292 42.3525L16.9785 42.6869Z" fill="#969A9E" fill-opacity="0.5"/>
<path d="M18.33 42.0208L18.8806 41.6863L18.33 41.3519L17.7793 41.6863L18.33 42.0208Z" fill="#969A9E" fill-opacity="0.5"/>
<path d="M17.7793 45.6888L18.33 46.0232L18.8806 45.6888L18.33 45.3543L17.7793 45.6888Z" fill="#969A9E" fill-opacity="0.5"/>
<path d="M16.9785 44.6882L17.5292 45.0226L18.0799 44.6882L17.5292 44.3537L16.9785 44.6882Z" fill="#969A9E" fill-opacity="0.5"/>
<path d="M17.7793 43.6875L18.33 44.022L18.8806 43.6875L18.33 43.3531L17.7793 43.6875Z" fill="#969A9E" fill-opacity="0.5"/>
<path d="M16.9785 46.6894L17.5292 47.0238L18.0799 46.6894L17.5292 46.3549L16.9785 46.6894Z" fill="#969A9E" fill-opacity="0.5"/>
<path d="M17.8491 49.6464L18.3998 49.9808L18.8804 49.6912L18.3297 49.3568L17.8491 49.6464Z" fill="#969A9E" fill-opacity="0.5"/>
<path d="M16.9785 48.6906L17.5292 49.025L18.0799 48.6906L17.5292 48.3562L16.9785 48.6906Z" fill="#969A9E" fill-opacity="0.5"/>
<path d="M17.7793 47.69L18.33 48.0244L18.8806 47.69L18.33 47.3556L17.7793 47.69Z" fill="#969A9E" fill-opacity="0.5"/>
<path d="M16.4777 40.6857L16.4426 40.6647C16.1748 40.7173 15.912 40.7832 15.6592 40.8569L15.927 41.0202L16.4777 40.6857Z" fill="#969A9E" fill-opacity="0.5"/>
<path d="M15.3765 42.6869L15.9271 43.0214L16.4778 42.6869L15.9271 42.3525L15.3765 42.6869Z" fill="#969A9E" fill-opacity="0.5"/>
<path d="M16.7279 42.0208L17.2786 41.6863L16.7279 41.3519L16.1772 41.6863L16.7279 42.0208Z" fill="#969A9E" fill-opacity="0.5"/>
<path d="M16.1772 45.6888L16.7279 46.0232L17.2786 45.6888L16.7279 45.3543L16.1772 45.6888Z" fill="#969A9E" fill-opacity="0.5"/>
<path d="M15.3765 44.6882L15.9271 45.0226L16.4778 44.6882L15.9271 44.3537L15.3765 44.6882Z" fill="#969A9E" fill-opacity="0.5"/>
<path d="M16.1772 43.6875L16.7279 44.022L17.2786 43.6875L16.7279 43.3531L16.1772 43.6875Z" fill="#969A9E" fill-opacity="0.5"/>
<path d="M15.3765 46.6894L15.9271 47.0238L16.4778 46.6894L15.9271 46.3549L15.3765 46.6894Z" fill="#969A9E" fill-opacity="0.5"/>
<path d="M16.4775 48.6906L15.9268 48.3562L15.8242 48.4167L16.3749 48.7511L16.4775 48.6906Z" fill="#969A9E" fill-opacity="0.5"/>
<path d="M16.1772 47.69L16.7279 48.0244L17.2786 47.69L16.7279 47.3556L16.1772 47.69Z" fill="#969A9E" fill-opacity="0.5"/>
<path d="M14.3251 43.0214L14.8758 42.6869L14.3251 42.3525L13.7744 42.6869L14.3251 43.0214Z" fill="#969A9E" fill-opacity="0.5"/>
<path d="M15.6765 41.6863L15.1259 41.3519L14.5752 41.6863L15.1259 42.0208L15.6765 41.6863Z" fill="#969A9E" fill-opacity="0.5"/>
<path d="M14.5752 45.6888L15.1259 46.0232L15.6765 45.6888L15.1259 45.3543L14.5752 45.6888Z" fill="#969A9E" fill-opacity="0.5"/>
<path d="M13.7744 44.6882L14.3251 45.0226L14.8758 44.6882L14.3251 44.3537L13.7744 44.6882Z" fill="#969A9E" fill-opacity="0.5"/>
<path d="M14.5752 43.6875L15.1259 44.022L15.6765 43.6875L15.1259 43.3531L14.5752 43.6875Z" fill="#969A9E" fill-opacity="0.5"/>
<path d="M13.7744 46.6894L14.3251 47.0238L14.8758 46.6894L14.3251 46.3549L13.7744 46.6894Z" fill="#969A9E" fill-opacity="0.5"/>
<path d="M14.6055 47.6715C14.6705 47.7137 14.7381 47.7584 14.8057 47.7979L15.1511 48.0086L15.6768 47.69L15.1261 47.3556L14.6055 47.6715Z" fill="#969A9E" fill-opacity="0.5"/>
<path d="M13.2737 42.687L12.9508 42.4921C12.8257 42.6448 12.718 42.8028 12.6279 42.9634L12.723 43.0214L13.2737 42.687Z" fill="#969A9E" fill-opacity="0.5"/>
<path d="M14.0748 41.6863L13.9572 41.6152C13.7769 41.7311 13.6092 41.8522 13.4565 41.9813L13.5216 42.0208L14.0723 41.6863H14.0748Z" fill="#969A9E" fill-opacity="0.5"/>
<path d="M12.7231 45.0226L13.2737 44.6882L12.7231 44.3537L12.3101 44.6039C12.3176 44.6645 12.3276 44.725 12.3401 44.7882L12.7256 45.0226H12.7231Z" fill="#969A9E" fill-opacity="0.5"/>
<path d="M12.9736 43.6875L13.5243 44.022L14.075 43.6875L13.5243 43.3531L12.9736 43.6875Z" fill="#969A9E" fill-opacity="0.5"/>
<path d="M13.5243 46.0232L14.075 45.6888L13.5243 45.3543L12.9736 45.6888L13.5243 46.0232Z" fill="#969A9E" fill-opacity="0.5"/>
<path d="M12.3651 43.6244C12.3526 43.6744 12.3401 43.7244 12.3301 43.7744L12.4703 43.6902L12.3651 43.627V43.6244Z" fill="#969A9E" fill-opacity="0.5"/>
<path d="M39.7812 30.7165C39.8588 31.2906 39.8963 31.8593 39.8963 32.4176C39.8963 35.0744 38.9877 36.9229 37.5284 37.7445L32.1068 40.7779C33.1756 40.1512 33.939 38.9689 34.2594 37.3205C34.3671 36.7597 34.4246 36.1435 34.4246 35.4721C34.4246 30.2794 30.9604 23.9625 26.6877 21.3688C26.4023 21.1976 26.1245 21.0475 25.8491 20.9133C25.2484 14.7674 21.1859 7.83167 16.2649 4.84566C15.2612 4.23476 14.295 3.83452 13.3889 3.62913C11.9796 3.30262 10.7056 3.44744 9.6543 4.00568L15.0284 1.00386C16.763 0.0216899 19.1309 0.203379 21.7391 1.79118C26.6576 4.77719 30.7176 11.713 31.3183 17.8588C31.5937 17.9904 31.8715 18.1432 32.1569 18.3143C34.1518 19.5256 35.979 21.5531 37.3507 23.8993C38.6022 26.0348 39.4783 28.4257 39.7812 30.7165Z" fill="white"/>
<path d="M34.4247 35.4721C34.4247 36.1435 34.3671 36.7597 34.2595 37.3205C33.9391 38.9689 33.1757 40.1512 32.1068 40.7779L32.0593 40.799C31.3559 41.1992 30.5249 41.3598 29.6088 41.2545C28.9305 41.1808 28.2046 40.9622 27.4511 40.5936C27.1983 40.4698 26.9455 40.3302 26.6877 40.1749L23.649 38.329L12.9634 31.8409L7.0036 28.2203C3.34162 25.9979 0.375488 20.5867 0.375488 16.142C0.375488 11.6972 3.14638 10.0119 6.64316 11.9052C6.64567 11.9104 6.65067 11.9131 6.65568 11.9131C6.65067 11.8815 6.65067 11.8552 6.64817 11.8236C6.62064 11.4496 6.60562 11.0757 6.60562 10.7097C6.60562 7.39719 7.737 5.08791 9.55923 4.06097L9.65435 4.00567C10.7056 3.44744 11.9797 3.30262 13.3889 3.62913C14.295 3.83452 15.2612 4.23476 16.2649 4.84565C21.186 7.83167 25.2484 14.7674 25.8492 20.9133C26.1245 21.0475 26.4024 21.1976 26.6877 21.3688C30.9604 23.9625 34.4247 30.2794 34.4247 35.4721Z" fill="#EEF0F1"/>
<path d="M28.4675 47.3187C29.679 47.3187 30.6627 48.3483 30.6627 49.6227C30.6627 50.8972 29.679 51.9294 28.4675 51.9294C27.256 51.9294 26.2773 50.8972 26.2773 49.6227C26.2773 49.2014 26.385 48.8091 26.5702 48.4694C26.9507 47.7821 27.6565 47.3187 28.4675 47.3187Z" fill="#009FB9"/>
<path d="M18.2347 49.9677C19.4437 49.9677 20.4249 50.9999 20.4249 52.2743C20.4249 53.5488 19.4437 54.5783 18.2347 54.5783C17.0257 54.5783 16.042 53.5461 16.042 52.2743C16.042 51.0025 17.0232 49.9677 18.2347 49.9677Z" fill="#009FB9"/>
<path d="M7.93723 38.753C7.55426 39.4271 6.85591 39.88 6.05493 39.88C4.84344 39.88 3.86475 38.8478 3.86475 37.5733C3.86475 36.2989 4.84344 35.2693 6.05493 35.2693C7.26641 35.2693 8.24511 36.3015 8.24511 37.5733C8.24511 38.0078 8.13498 38.408 7.93723 38.753Z" fill="#009FB9"/>
<path d="M26.57 48.8644C26.5074 48.8644 26.4423 48.8486 26.3822 48.8117L23.4612 47.037C23.346 46.9659 23.2734 46.8368 23.2734 46.6946V38.3291C23.2734 38.1105 23.4411 37.9341 23.6489 37.9341C23.8567 37.9341 24.0244 38.1105 24.0244 38.3291V46.4656L26.7577 48.1271C26.9379 48.235 26.998 48.4773 26.8954 48.6669C26.8253 48.7933 26.7001 48.8644 26.57 48.8644Z" fill="#0E2933"/>
<path d="M18.2348 51.2421C18.0271 51.2421 17.8594 51.0657 17.8594 50.8471V35.0402C17.8594 34.8217 18.0271 34.6452 18.2348 34.6452C18.4426 34.6452 18.6103 34.8217 18.6103 35.0402V50.8471C18.6103 51.0657 18.4426 51.2421 18.2348 51.2421Z" fill="#0E2933"/>
<path d="M12.9635 42.2024C12.8984 42.2024 12.8333 42.184 12.7758 42.1498L6.89858 38.5792C6.71836 38.4712 6.65829 38.229 6.76091 38.0394C6.86354 37.8498 7.09382 37.7866 7.27404 37.8946L12.588 41.1228V31.8409C12.588 31.6224 12.7558 31.4459 12.9635 31.4459C13.1713 31.4459 13.339 31.6224 13.339 31.8409V41.8075C13.339 41.9497 13.2664 42.0787 13.1512 42.1498C13.0937 42.184 13.0286 42.2024 12.9635 42.2024Z" fill="#0E2933"/>
<path d="M30.1544 41.6811C29.9617 41.6811 29.7665 41.6705 29.5687 41.6468C28.8403 41.5678 28.0744 41.3335 27.2934 40.9517C27.0381 40.8279 26.7803 40.6857 26.5025 40.5172L23.4637 38.6714C23.4637 38.6714 23.4412 38.6556 23.4312 38.6477L12.7781 32.1832C12.7781 32.1832 12.7556 32.1674 12.7431 32.1595L6.81835 28.5626C3.05875 26.2797 0 20.7079 0 16.142C0 13.888 0.730895 12.179 2.05502 11.3285C3.19892 10.5939 4.66571 10.5807 6.24014 11.2732C6.23263 11.0836 6.23013 10.8967 6.23013 10.7097C6.23013 7.3419 7.349 4.85882 9.38149 3.71339L9.4716 3.66073C9.65182 3.5554 9.8821 3.62386 9.98222 3.81608C10.0823 4.00831 10.0173 4.24792 9.83454 4.35325L9.73943 4.40855C7.95724 5.41178 6.97855 7.64998 6.97855 10.7124C6.97855 11.0731 6.99356 11.4365 7.0211 11.7946V11.8315C7.04112 11.9473 7.01109 12.0737 6.941 12.1606C6.82586 12.3028 6.6181 12.3502 6.46041 12.2528C4.91852 11.4207 3.49178 11.3312 2.44549 12.0026C1.35166 12.703 0.748416 14.175 0.748416 16.142C0.748416 20.4577 3.63695 25.7241 7.1888 27.878L13.1486 31.496C13.1486 31.496 13.1711 31.5118 13.1836 31.5197L23.8342 37.9841C23.8342 37.9841 23.8567 37.9999 23.8667 38.0078L26.8729 39.8326C27.1307 39.9879 27.371 40.1196 27.6063 40.2355C28.3122 40.5804 28.998 40.7911 29.6438 40.8622C30.4798 40.9596 31.2307 40.82 31.8765 40.4514C31.8865 40.4461 31.8991 40.4408 31.9091 40.4356L31.9566 40.4145C32.1469 40.3302 32.3671 40.425 32.4472 40.6252C32.5273 40.8253 32.4372 41.057 32.247 41.1413L32.217 41.1544C31.5962 41.5046 30.9028 41.6811 30.1494 41.6811H30.1544Z" fill="#0E2933"/>
<path d="M32.1067 41.1729C31.974 41.1729 31.8439 41.0992 31.7763 40.9675C31.6787 40.7779 31.7438 40.5383 31.924 40.433C32.9177 39.8484 33.5985 38.7451 33.8914 37.2416C33.9965 36.6965 34.0491 36.1014 34.0491 35.4721C34.0491 30.4111 30.6624 24.239 26.4998 21.7111C26.232 21.5505 25.9667 21.4057 25.6913 21.2714C25.5712 21.2135 25.4886 21.0923 25.4761 20.9528C24.8803 14.8543 20.8404 8.07657 16.0771 5.18798C15.1284 4.61132 14.1998 4.21634 13.3087 4.01622C12.0146 3.71604 10.8081 3.83453 9.82191 4.35853C9.63918 4.45596 9.41391 4.3796 9.31879 4.18738C9.22367 3.99516 9.29376 3.75817 9.47648 3.65811L14.8531 0.653663C16.7804 -0.436469 19.2935 -0.157353 21.9267 1.44888C26.8177 4.41646 30.9753 11.3259 31.6687 17.5955C31.8814 17.7034 32.1042 17.8272 32.342 17.972C34.3244 19.1754 36.2167 21.2082 37.671 23.6939C38.9701 25.911 39.8537 28.3862 40.154 30.6639C40.2316 31.2458 40.2717 31.8383 40.2717 32.4202C40.2717 35.1482 39.3606 37.1626 37.7061 38.0947L32.2844 41.1281C32.2293 41.1597 32.1693 41.1755 32.1092 41.1755L32.1067 41.1729ZM26.1995 20.65C26.4272 20.7658 26.65 20.8896 26.8728 21.0239C31.2431 23.6781 34.8 30.1583 34.8 35.4694C34.8 36.1514 34.7424 36.7992 34.6273 37.3969C34.4896 38.1 34.2769 38.7267 33.994 39.2717L37.3531 37.3916C38.7523 36.6043 39.5208 34.8375 39.5208 32.4123C39.5208 31.8673 39.4832 31.3143 39.4081 30.7666C39.1203 28.5942 38.2768 26.227 37.0302 24.102C35.641 21.7269 33.8438 19.7915 31.969 18.6514C31.6787 18.4776 31.4133 18.3328 31.163 18.2143C31.0404 18.1563 30.9578 18.0352 30.9453 17.8957C30.3495 11.7972 26.3121 5.01946 21.5513 2.13087C19.1508 0.669462 16.8981 0.392979 15.206 1.34882L12.1372 3.06301C12.5703 3.07618 13.0158 3.13411 13.4689 3.23944C14.4326 3.45799 15.4388 3.88193 16.4525 4.50072C21.346 7.47094 25.5061 14.3777 26.1995 20.6473V20.65Z" fill="#0E2933"/>
<path d="M28.4675 52.3244C27.0533 52.3244 25.9019 51.1131 25.9019 49.6227C25.9019 49.1514 26.0195 48.6827 26.2448 48.2719C26.7053 47.4398 27.5564 46.9237 28.4675 46.9237C29.8842 46.9237 31.0381 48.135 31.0381 49.6227C31.0381 51.1105 29.8842 52.3244 28.4675 52.3244ZM28.4675 47.7137C27.8242 47.7137 27.221 48.0797 26.8956 48.6669C26.7354 48.9592 26.6528 49.283 26.6528 49.6227C26.6528 50.676 27.4663 51.5344 28.4675 51.5344C29.4687 51.5344 30.2872 50.676 30.2872 49.6227C30.2872 48.5695 29.4712 47.7137 28.4675 47.7137Z" fill="#0E2933"/>
<path d="M6.0549 40.275C4.64067 40.275 3.48926 39.0637 3.48926 37.5733C3.48926 36.083 4.64067 34.8743 6.0549 34.8743C7.46913 34.8743 8.62054 36.0856 8.62054 37.5733C8.62054 38.0657 8.49539 38.545 8.2601 38.9557C7.79203 39.7799 6.96602 40.275 6.0549 40.275ZM6.0549 35.6643C5.05367 35.6643 4.24018 36.5201 4.24018 37.5733C4.24018 38.6266 5.05367 39.485 6.0549 39.485C6.69819 39.485 7.2814 39.1348 7.61431 38.5502C7.78452 38.2553 7.86962 37.9262 7.86962 37.5733C7.86962 36.5201 7.05613 35.6643 6.0549 35.6643Z" fill="#0E2933"/>
<path d="M18.2346 54.9733C16.8179 54.9733 15.6665 53.7621 15.6665 52.2743C15.6665 50.7866 16.8179 49.5727 18.2346 49.5727C19.6514 49.5727 20.8003 50.784 20.8003 52.2743C20.8003 53.7647 19.6489 54.9733 18.2346 54.9733ZM18.2346 50.3626C17.2334 50.3626 16.4174 51.2211 16.4174 52.2743C16.4174 53.3276 17.2334 54.1834 18.2346 54.1834C19.2359 54.1834 20.0494 53.3276 20.0494 52.2743C20.0494 51.2211 19.2359 50.3626 18.2346 50.3626Z" fill="#0E2933"/>
</svg>
